<svg viewBox="216.4 12.0 367.3 576.0" xmlns="http://www.w3.org/2000/svg">
  <path id="1" d="M 225.2,405.1 L 262.1,404.9 L 263.0,408.3 L 264.5,409.2 L 263.8,406.3 L 266.2,404.6 L 273.4,417.4 L 276.1,413.4 L 284.2,410.9 L 284.9,408.8 L 284.8,404.5 L 277.6,400.8 L 278.2,397.9 L 290.0,394.0 L 293.8,399.9 L 294.8,396.7 L 297.1,398.4 L 294.7,404.6 L 292.0,405.3 L 290.9,403.2 L 290.8,406.5 L 299.5,412.5 L 298.1,416.9 L 292.9,419.6 L 291.3,417.0 L 288.3,417.4 L 286.2,419.6 L 287.1,425.4 L 284.8,426.6 L 284.7,423.4 L 282.4,422.8 L 281.3,429.0 L 277.1,434.8 L 279.4,436.9 L 277.8,439.0 L 280.1,439.6 L 276.0,442.5 L 281.5,440.2 L 281.6,444.3 L 279.7,448.7 L 278.4,446.8 L 277.9,450.1 L 274.3,449.7 L 275.3,454.8 L 272.0,456.3 L 276.3,457.9 L 277.5,460.0 L 275.6,462.9 L 278.7,464.7 L 283.0,461.3 L 285.5,462.3 L 284.1,459.4 L 286.8,459.6 L 285.1,456.5 L 287.8,453.8 L 291.8,454.1 L 289.6,449.3 L 293.7,451.9 L 291.8,448.5 L 293.8,443.9 L 296.6,447.4 L 299.6,439.5 L 305.3,436.6 L 309.1,438.8 L 312.5,435.6 L 313.6,430.7 L 307.8,426.1 L 313.3,421.8 L 313.2,405.2 L 318.1,405.1 L 317.9,391.5 L 319.6,389.8 L 377.8,389.6 L 377.9,398.6 L 369.8,402.7 L 363.7,402.7 L 362.9,407.8 L 355.4,411.6 L 352.5,425.6 L 348.5,432.8 L 339.6,439.6 L 326.8,456.0 L 391.8,455.8 L 391.5,465.0 L 398.1,463.9 L 399.3,486.9 L 310.0,486.5 L 311.0,490.5 L 306.5,501.8 L 307.2,503.9 L 315.3,511.9 L 316.8,516.4 L 329.8,526.5 L 329.8,531.8 L 324.6,542.7 L 327.9,549.8 L 330.6,550.6 L 329.5,553.3 L 326.4,554.2 L 321.0,562.7 L 319.0,563.1 L 319.2,562.7 L 318.7,562.2 L 318.8,561.5 L 318.3,560.6 L 318.0,565.3 L 315.8,566.9 L 314.1,564.7 L 312.2,567.3 L 312.5,561.4 L 310.7,563.7 L 310.1,561.2 L 308.1,560.5 L 310.6,565.2 L 309.4,567.0 L 307.8,566.7 L 307.3,567.8 L 311.9,568.4 L 318.2,566.6 L 311.5,570.9 L 314.8,570.0 L 314.6,570.6 L 290.3,575.9 L 267.9,576.8 L 274.7,575.3 L 277.1,572.1 L 282.0,574.8 L 291.5,573.0 L 295.6,568.3 L 296.9,571.9 L 296.3,568.3 L 298.7,566.4 L 299.0,565.4 L 294.8,568.8 L 287.1,560.8 L 289.0,557.1 L 287.9,554.5 L 285.8,556.4 L 286.6,558.8 L 279.8,554.7 L 276.8,546.4 L 280.7,539.1 L 279.2,526.4 L 278.0,528.0 L 278.6,524.6 L 278.5,523.1 L 278.1,521.8 L 279.8,521.0 L 278.1,518.6 L 279.2,520.8 L 278.0,521.7 L 278.4,523.3 L 278.3,523.8 L 276.8,519.4 L 278.1,515.0 L 274.3,516.2 L 272.5,518.5 L 271.8,521.0 L 270.5,522.5 L 272.1,518.9 L 269.9,519.5 L 269.5,517.4 L 271.9,516.8 L 271.0,516.0 L 272.4,516.0 L 272.8,515.3 L 274.5,511.1 L 273.0,509.6 L 273.6,511.6 L 271.8,514.9 L 270.7,515.9 L 272.3,513.6 L 271.1,512.2 L 268.7,514.2 L 270.1,520.8 L 269.9,522.1 L 267.4,516.7 L 269.7,523.0 L 267.4,522.6 L 266.7,517.5 L 270.0,511.4 L 266.4,516.5 L 267.4,525.0 L 264.9,526.9 L 265.4,531.3 L 262.2,536.8 L 260.2,558.7 L 258.2,563.2 L 255.2,562.9 L 256.1,564.0 L 251.9,565.7 L 252.3,559.8 L 242.0,557.1 L 239.8,559.6 L 240.0,557.2 L 237.5,555.4 L 233.2,556.2 L 231.9,557.6 Z M 317.9,569.6 L 315.6,570.5 L 315.0,570.1 L 316.3,570.1 Z M 232.4,561.7 L 232.1,561.6 L 232.5,561.6 Z M 276.5,516.0 L 275.1,524.4 L 274.3,524.5 L 274.4,524.3 L 270.9,523.7 L 270.0,523.2 Z M 259.5,571.9 L 263.4,573.7 L 240.0,575.8 L 258.0,573.4 Z M 277.0,521.4 L 277.9,525.2 L 275.0,525.9 Z M 323.9,567.1 L 321.2,568.5 L 315.6,569.8 L 319.6,567.6 Z M 267.3,523.9 L 268.5,523.7 L 268.4,525.0 Z M 258.1,563.3 L 257.3,566.4 L 257.2,566.5 L 256.4,564.8 Z M 245.0,563.7 L 246.0,564.0 L 245.7,565.0 Z M 245.6,560.4 L 244.9,562.4 L 245.3,559.8 Z M 267.3,525.2 L 267.2,526.6 L 266.3,526.4 Z M 277.7,525.3 L 277.6,526.9 L 276.9,526.1 Z M 259.9,570.6 L 261.8,572.1 L 261.8,572.3 Z M 234.6,557.4 L 235.4,556.8 L 234.7,557.6 Z M 259.0,571.2 L 259.4,570.3 L 259.6,570.8 Z M 233.2,557.9 L 233.7,557.5 L 233.6,558.1 Z M 248.7,565.1 L 249.0,565.5 L 248.3,565.3 Z M 236.8,557.1 L 238.1,557.4 L 236.6,557.3 Z M 233.3,556.2 L 233.6,556.5 L 233.6,556.5 L 233.5,556.7 L 233.6,556.9 L 233.4,557.0 Z M 259.8,576.1 L 260.1,576.9 L 259.8,576.5 Z M 272.1,515.1 L 271.6,515.5 L 272.3,514.7 Z M 275.1,524.8 L 274.7,525.4 L 274.6,525.4 Z M 265.5,579.2 L 265.3,580.0 L 264.9,579.8 Z M 232.7,558.1 L 233.3,558.2 L 233.1,558.6 Z M 244.9,563.6 L 244.6,563.7 L 244.6,563.3 Z M 259.9,570.6 L 259.9,571.2 L 259.5,570.3 Z M 250.0,565.3 L 250.3,565.6 L 250.2,565.7 Z M 315.8,569.0 L 315.4,569.3 L 315.3,569.2 Z M 262.3,572.4 L 262.7,573.0 L 262.2,572.3 Z M 270.4,516.0 L 270.0,516.0 L 270.5,515.8 Z M 272.7,518.6 L 272.4,519.4 L 272.6,518.5 Z M 315.1,569.2 L 315.0,569.6 L 314.7,569.6 Z M 232.3,558.6 L 232.7,559.0 L 232.2,558.7 Z M 278.4,524.5 L 278.2,524.8 L 278.3,524.3 Z M 233.6,557.1 L 233.9,556.9 L 234.1,557.4 Z M 265.7,526.7 L 265.8,527.0 L 265.6,526.9 Z M 258.5,569.4 L 258.3,569.7 L 258.2,569.5 Z M 323.9,567.6 L 323.8,567.4 L 324.0,567.5 Z M 314.9,569.2 L 314.5,569.5 L 314.9,569.1 Z M 268.1,525.5 L 267.9,525.7 L 267.8,525.4 Z M 328.5,549.7 L 328.5,550.0 L 328.2,549.6 Z M 266.3,526.5 L 266.1,526.8 L 266.0,526.7 Z M 271.2,515.6 L 270.8,515.8 L 271.2,515.5 Z M 233.0,561.0 L 232.6,561.1 L 232.9,560.9 Z M 234.1,557.6 L 234.1,557.8 L 234.0,557.7 Z M 278.1,528.3 L 278.3,528.2 L 278.2,528.4 Z M 233.0,556.9 L 233.2,556.9 L 233.2,557.3 Z M 257.3,568.3 L 257.5,568.5 L 257.3,568.4 Z M 233.5,556.7 L 233.7,556.6 L 233.7,556.8 Z M 233.7,556.6 L 233.8,556.9 L 233.8,556.8 Z M 251.0,564.0 L 251.0,564.2 L 250.8,564.2 Z M 242.2,559.4 L 241.8,559.5 L 241.7,559.5 Z M 232.3,557.5 L 232.2,557.7 L 232.1,557.6 Z M 314.1,569.8 L 314.0,570.0 L 314.0,569.9 Z M 244.9,561.9 L 244.8,562.1 L 244.9,561.8 Z M 298.6,566.1 L 298.5,566.2 L 298.5,566.2 Z M 267.2,527.2 L 267.1,527.4 L 267.1,527.2 Z M 307.4,567.6 L 307.5,567.7 L 307.4,567.7 Z M 241.2,559.5 L 241.4,559.5 L 241.4,559.5 Z M 260.1,571.2 L 260.1,571.3 L 260.1,571.3 Z M 234.9,559.8 L 234.8,559.9 L 234.8,559.8 Z M 315.5,569.9 L 315.6,569.9 L 315.5,569.9 Z M 315.0,570.1 L 315.0,570.2 L 315.0,570.1 Z"/>
  <path id="2" d="M 326.8,455.8 L 339.6,439.6 L 348.5,432.8 L 352.5,425.6 L 355.4,411.6 L 362.9,407.8 L 363.7,402.7 L 369.8,402.7 L 377.9,398.6 L 377.6,374.4 L 427.0,374.1 L 426.7,345.6 L 428.7,343.5 L 432.5,345.4 L 432.9,341.9 L 437.2,344.4 L 436.6,334.2 L 439.3,337.0 L 443.2,335.8 L 444.3,333.2 L 437.4,331.9 L 436.6,328.1 L 439.9,327.9 L 435.1,325.9 L 424.0,331.4 L 423.3,335.0 L 419.2,336.8 L 419.8,330.4 L 414.5,330.5 L 410.5,326.2 L 408.4,327.9 L 405.8,322.6 L 402.9,323.5 L 399.7,328.8 L 396.7,327.7 L 396.1,322.8 L 390.4,324.0 L 390.9,330.3 L 386.7,333.9 L 387.6,328.7 L 383.8,322.3 L 385.9,320.5 L 381.8,319.0 L 377.9,307.5 L 376.8,292.7 L 396.8,292.9 L 396.7,287.8 L 426.2,287.6 L 426.2,282.6 L 433.7,282.2 L 433.7,280.6 L 435.4,282.2 L 469.4,282.1 L 469.4,280.4 L 478.5,282.1 L 475.4,291.1 L 477.7,294.6 L 477.5,311.7 L 481.1,314.6 L 477.5,317.9 L 467.5,317.3 L 467.4,319.9 L 462.2,322.7 L 447.8,319.2 L 450.0,322.8 L 447.2,325.5 L 453.1,327.1 L 449.9,328.0 L 450.8,331.8 L 448.0,336.0 L 455.0,343.4 L 455.7,351.8 L 460.2,350.3 L 466.9,353.4 L 468.0,338.2 L 476.6,337.9 L 476.9,334.4 L 480.8,342.9 L 522.2,342.6 L 522.8,352.9 L 539.5,352.7 L 546.6,362.7 L 559.2,362.6 L 559.9,367.4 L 556.2,374.7 L 557.0,376.9 L 551.6,382.5 L 550.8,395.3 L 552.4,397.0 L 552.4,405.4 L 559.0,414.1 L 560.7,423.1 L 555.7,443.9 L 555.9,451.9 L 553.5,454.0 L 555.2,460.0 L 554.2,464.6 L 561.2,473.7 L 564.5,486.2 L 399.3,486.9 L 398.1,463.9 L 391.5,465.0 L 391.8,455.8 Z"/>
  <path id="3" d="M 410.1,164.6 L 410.1,160.3 L 426.9,156.4 L 433.1,150.5 L 432.8,147.1 L 439.5,138.5 L 442.1,141.3 L 448.1,139.2 L 452.7,149.0 L 456.0,148.6 L 456.8,153.1 L 460.6,153.2 L 460.3,155.6 L 467.2,153.0 L 469.7,147.2 L 476.6,148.2 L 476.5,143.9 L 478.3,143.0 L 492.1,144.8 L 492.5,138.5 L 486.6,125.7 L 487.2,122.7 L 482.3,124.4 L 482.0,108.8 L 488.8,107.1 L 499.6,95.2 L 503.1,93.9 L 503.2,91.2 L 508.2,100.9 L 511.1,98.4 L 513.3,101.1 L 518.3,97.2 L 546.6,269.7 L 549.4,271.0 L 548.2,275.5 L 552.7,279.8 L 550.7,281.5 L 553.6,284.3 L 553.2,289.4 L 556.0,293.4 L 554.5,295.3 L 556.6,295.9 L 558.1,302.5 L 564.0,309.0 L 565.2,317.2 L 568.3,320.6 L 564.1,331.9 L 575.7,339.7 L 572.1,340.8 L 571.7,344.3 L 567.3,344.6 L 568.3,347.1 L 558.7,354.3 L 559.2,362.6 L 546.6,362.7 L 539.5,352.7 L 522.8,352.9 L 522.2,342.6 L 480.8,342.9 L 476.9,334.4 L 476.6,337.9 L 468.0,338.2 L 466.9,353.4 L 460.2,350.3 L 455.7,351.8 L 455.0,343.4 L 448.0,336.0 L 450.8,331.8 L 449.9,328.0 L 453.1,327.1 L 447.2,325.5 L 450.0,322.8 L 447.8,319.2 L 462.2,322.7 L 467.4,319.9 L 467.5,317.3 L 477.5,317.9 L 481.1,314.6 L 477.5,311.7 L 477.7,294.6 L 475.4,291.1 L 478.5,282.1 L 469.4,280.4 L 469.4,282.1 L 466.0,282.1 L 465.8,241.4 L 418.6,241.6 L 421.6,239.0 L 417.4,233.2 L 418.4,230.7 L 421.4,230.3 L 421.8,225.5 L 425.1,223.6 L 424.2,220.7 L 427.1,221.9 L 431.6,219.3 L 430.6,213.8 L 433.3,212.3 L 429.6,208.4 L 429.6,195.1 L 419.5,195.1 L 419.5,190.1 L 412.6,188.3 L 415.3,169.7 L 413.5,164.6 Z"/>
  <path id="4" d="M 243.8,191.5 L 261.1,33.2 L 266.7,31.8 L 273.3,34.6 L 278.8,44.0 L 289.6,52.1 L 317.3,40.4 L 335.0,44.6 L 339.5,49.9 L 346.2,48.4 L 351.0,50.4 L 358.4,57.5 L 357.9,100.8 L 401.1,101.7 L 409.7,101.8 L 412.7,73.8 L 417.6,81.1 L 425.1,81.5 L 428.6,79.1 L 428.4,76.8 L 434.4,77.6 L 436.7,72.0 L 434.2,70.6 L 437.3,69.8 L 434.7,67.5 L 452.2,67.6 L 452.2,76.7 L 455.8,75.7 L 466.3,81.4 L 470.0,79.3 L 469.6,76.7 L 470.9,78.3 L 487.7,64.6 L 496.8,50.7 L 500.0,49.4 L 503.3,40.5 L 507.6,37.2 L 518.3,97.2 L 513.3,101.1 L 511.1,98.4 L 508.2,100.9 L 505.1,97.1 L 504.9,92.5 L 503.2,91.2 L 503.1,93.9 L 499.6,95.2 L 488.8,107.1 L 482.0,108.8 L 482.3,124.4 L 487.2,122.7 L 486.6,125.7 L 492.5,138.5 L 492.1,144.8 L 478.3,143.0 L 476.5,143.9 L 476.6,148.2 L 469.7,147.2 L 467.2,153.0 L 464.6,152.8 L 464.6,154.5 L 460.3,155.6 L 460.6,153.2 L 456.8,153.1 L 456.0,148.6 L 452.7,149.0 L 450.3,141.3 L 447.2,138.6 L 442.1,141.3 L 439.5,138.5 L 434.8,144.2 L 430.4,144.3 L 434.0,139.3 L 434.1,132.6 L 431.5,129.9 L 425.8,130.4 L 428.0,123.3 L 420.4,118.5 L 411.1,117.4 L 407.9,123.4 L 397.7,127.8 L 399.6,131.0 L 397.7,130.4 L 397.9,133.1 L 392.1,137.8 L 391.1,141.2 L 376.1,147.9 L 376.5,152.1 L 372.3,152.7 L 373.2,160.4 L 366.4,163.7 L 363.1,177.2 L 359.6,177.2 L 359.6,180.6 L 351.1,182.2 L 348.6,186.5 L 350.4,189.3 L 345.5,191.0 L 344.2,193.8 L 342.1,192.0 L 343.2,195.2 L 340.5,195.3 L 340.6,197.8 L 336.3,196.4 L 335.8,200.5 L 340.8,202.3 L 346.0,207.6 L 346.0,211.0 L 349.3,211.9 L 343.9,221.5 L 345.3,224.9 L 339.9,229.1 L 337.7,227.8 L 335.2,229.8 L 331.1,227.0 L 331.7,224.2 L 329.1,221.3 L 326.7,224.0 L 313.4,228.3 L 313.8,226.0 L 306.0,222.2 L 307.2,229.5 L 291.8,238.5 L 286.6,237.7 L 286.3,192.5 Z"/>
  <path id="5" d="M 250.8,20.0 L 505.4,22.7 L 507.6,37.2 L 503.3,40.5 L 500.0,49.4 L 496.8,50.7 L 487.7,64.6 L 470.9,78.3 L 469.6,76.7 L 468.2,80.7 L 465.3,81.3 L 454.2,75.2 L 452.2,76.7 L 452.2,67.6 L 442.6,67.5 L 434.7,67.5 L 437.3,69.8 L 434.2,70.6 L 436.7,72.0 L 434.4,77.6 L 428.4,76.8 L 428.6,79.1 L 425.1,81.5 L 417.6,81.1 L 412.6,74.0 L 409.7,101.8 L 359.6,100.9 L 357.9,100.8 L 358.4,57.5 L 355.1,53.0 L 346.9,48.5 L 339.5,49.9 L 335.0,44.6 L 317.3,40.4 L 299.4,47.3 L 294.1,51.7 L 288.8,51.8 L 278.8,44.0 L 273.3,34.6 L 257.0,31.4 Z"/>
  <path id="6" d="M 327.4,253.6 L 337.5,252.9 L 338.2,242.7 L 341.1,238.1 L 349.2,238.4 L 349.2,230.7 L 353.8,226.5 L 358.5,227.8 L 361.2,224.9 L 370.4,225.0 L 369.4,223.6 L 374.8,218.6 L 372.2,217.7 L 374.6,212.4 L 379.1,211.0 L 380.8,213.5 L 382.7,209.9 L 381.8,205.8 L 391.2,195.1 L 390.0,193.6 L 396.0,191.9 L 400.6,185.5 L 398.4,185.2 L 399.2,183.1 L 402.8,183.7 L 404.9,180.7 L 401.8,179.8 L 401.5,175.4 L 397.8,176.1 L 389.5,186.7 L 387.0,184.4 L 383.6,185.3 L 382.3,180.4 L 378.8,182.4 L 378.8,184.5 L 376.0,183.9 L 378.9,189.7 L 377.0,191.2 L 372.0,189.2 L 372.4,191.2 L 370.1,191.0 L 375.1,194.3 L 369.8,199.2 L 373.4,200.3 L 371.9,205.7 L 368.6,211.0 L 366.0,208.0 L 359.5,214.7 L 356.6,212.8 L 351.1,215.5 L 349.3,211.9 L 346.0,211.0 L 343.8,205.0 L 335.8,200.5 L 336.3,196.4 L 340.6,197.8 L 340.5,195.3 L 343.2,195.2 L 342.1,192.0 L 344.2,193.8 L 345.5,191.0 L 350.4,189.3 L 348.6,186.5 L 351.1,182.2 L 359.6,180.6 L 359.6,177.2 L 363.1,177.2 L 366.4,163.7 L 373.2,160.4 L 372.3,152.7 L 376.5,152.1 L 376.0,148.0 L 379.8,146.9 L 379.9,144.9 L 391.1,141.2 L 392.1,137.8 L 397.9,133.1 L 397.7,130.4 L 399.6,131.0 L 397.7,127.9 L 398.9,126.5 L 401.2,127.5 L 402.7,124.7 L 407.9,123.4 L 411.2,117.4 L 420.4,118.5 L 428.0,123.3 L 425.8,130.4 L 431.5,129.9 L 434.1,132.6 L 434.0,139.3 L 430.4,144.3 L 434.8,144.2 L 432.5,147.7 L 433.4,150.0 L 424.6,158.3 L 410.1,160.3 L 410.1,164.6 L 413.5,164.6 L 415.3,169.7 L 412.6,188.3 L 419.5,190.1 L 419.5,195.1 L 429.6,195.1 L 429.6,208.4 L 433.3,212.3 L 430.6,213.8 L 431.6,219.3 L 427.1,221.9 L 424.2,220.7 L 425.1,223.6 L 421.8,225.5 L 421.4,230.3 L 418.4,230.7 L 417.4,233.2 L 421.6,239.0 L 418.6,241.6 L 465.8,241.4 L 466.0,282.1 L 435.4,282.2 L 433.7,280.6 L 433.7,282.2 L 426.2,282.6 L 426.2,287.6 L 396.7,287.8 L 396.8,292.9 L 367.0,292.8 L 366.8,272.5 L 337.4,273.2 L 337.4,268.1 L 327.4,268.2 Z"/>
  <path id="7" d="M 224.4,381.8 L 243.8,191.5 L 286.3,192.5 L 286.6,237.7 L 291.3,238.6 L 296.9,234.0 L 299.6,235.6 L 300.7,232.0 L 302.8,233.6 L 301.9,231.0 L 307.2,229.5 L 306.0,222.2 L 313.8,226.0 L 313.4,228.3 L 326.7,224.0 L 329.1,221.3 L 332.9,229.2 L 339.9,229.1 L 345.3,224.9 L 343.9,221.5 L 349.5,213.7 L 351.2,215.5 L 356.6,212.8 L 359.5,214.7 L 366.0,208.0 L 368.6,211.0 L 373.4,200.3 L 369.8,199.2 L 375.1,196.0 L 370.1,191.0 L 372.4,191.2 L 372.0,189.2 L 377.0,191.2 L 378.9,189.7 L 376.0,183.9 L 378.8,184.5 L 378.8,182.4 L 382.3,180.4 L 383.6,185.3 L 387.0,184.4 L 389.5,186.7 L 397.8,176.1 L 401.5,175.4 L 401.8,179.8 L 404.9,180.7 L 404.0,182.2 L 399.2,183.1 L 398.4,185.2 L 400.6,185.5 L 396.0,191.9 L 390.0,193.6 L 391.2,195.1 L 381.8,205.8 L 382.7,209.9 L 380.8,213.5 L 379.1,211.0 L 374.6,212.4 L 372.2,217.7 L 374.8,218.6 L 369.4,223.6 L 370.4,225.0 L 361.2,224.9 L 358.5,227.8 L 353.8,226.5 L 349.2,230.7 L 349.2,238.4 L 341.1,238.1 L 338.2,242.7 L 337.5,252.9 L 327.4,253.2 L 327.4,268.2 L 337.4,268.1 L 337.4,273.2 L 366.8,272.5 L 367.0,292.8 L 376.8,292.7 L 377.9,307.5 L 381.8,319.0 L 385.9,320.5 L 383.8,322.3 L 387.6,328.7 L 387.3,334.1 L 390.9,330.3 L 390.1,324.3 L 395.8,322.8 L 396.7,327.7 L 399.5,328.8 L 402.9,323.5 L 405.8,322.6 L 408.4,327.9 L 410.5,326.2 L 414.5,330.5 L 419.8,330.4 L 419.2,336.8 L 423.3,335.0 L 424.0,331.4 L 435.0,326.0 L 439.9,327.9 L 436.6,328.1 L 437.4,331.9 L 444.3,333.2 L 443.2,335.8 L 439.3,337.0 L 436.6,334.2 L 437.2,344.4 L 432.9,341.9 L 432.5,345.4 L 428.7,343.5 L 426.7,345.6 L 427.0,374.1 L 377.6,374.4 L 377.8,389.6 L 319.6,389.8 L 317.9,391.5 L 318.1,405.1 L 313.2,405.2 L 313.3,421.8 L 307.8,426.1 L 313.6,430.7 L 312.5,435.6 L 309.1,438.8 L 305.3,436.6 L 299.6,439.5 L 296.6,447.4 L 293.8,443.9 L 291.8,448.5 L 293.7,451.9 L 289.6,449.3 L 291.8,454.1 L 287.8,453.8 L 285.1,456.5 L 286.8,459.6 L 284.1,459.4 L 285.5,462.3 L 283.0,461.3 L 282.8,463.2 L 278.4,464.7 L 275.6,462.9 L 277.5,460.0 L 276.3,457.9 L 272.0,456.3 L 275.3,454.8 L 274.3,449.7 L 277.9,450.1 L 278.4,446.8 L 279.7,448.7 L 281.6,444.3 L 281.2,442.9 L 281.8,441.1 L 281.5,440.2 L 276.0,442.5 L 280.1,439.6 L 277.8,439.0 L 279.4,436.9 L 277.1,434.8 L 281.3,429.0 L 282.4,422.8 L 284.7,423.4 L 284.8,426.6 L 287.1,425.4 L 286.2,419.6 L 288.3,417.4 L 291.3,417.0 L 292.9,419.6 L 298.1,416.9 L 299.5,412.5 L 290.8,406.5 L 290.9,403.2 L 292.0,405.3 L 294.7,404.6 L 297.1,398.4 L 294.8,396.7 L 293.8,399.9 L 290.0,394.0 L 278.2,397.9 L 277.6,400.8 L 284.8,404.5 L 284.4,410.6 L 279.2,411.2 L 273.1,417.4 L 266.2,404.6 L 263.8,406.3 L 264.5,409.2 L 262.1,404.9 L 225.2,405.1 Z"/>
</svg>
