<svg viewBox="12.0 56.7 775.9 487.0" xmlns="http://www.w3.org/2000/svg">
  <path id="1" d="M 20.0,293.5 L 71.6,104.6 L 74.9,104.6 L 230.4,109.5 L 236.2,128.4 L 205.8,133.3 L 202.2,152.9 L 205.0,152.6 L 204.5,154.9 L 201.7,155.3 L 201.0,159.1 L 196.8,159.7 L 202.4,166.5 L 199.4,183.7 L 200.8,183.4 L 200.9,186.0 L 191.3,188.3 L 190.6,201.9 L 198.1,200.7 L 197.5,211.7 L 182.8,214.1 L 183.7,236.6 L 197.5,234.4 L 210.8,236.2 L 219.1,230.8 L 241.6,229.8 L 245.2,252.8 L 254.4,251.5 L 256.2,264.7 L 264.1,263.6 L 262.7,258.7 L 265.6,258.6 L 267.5,255.3 L 269.3,254.7 L 268.7,258.3 L 272.4,259.3 L 272.9,257.1 L 276.0,257.4 L 278.2,251.4 L 282.7,250.1 L 283.2,252.3 L 285.4,252.1 L 287.7,248.6 L 301.4,246.0 L 307.5,258.6 L 308.9,266.0 L 310.5,266.5 L 309.9,261.4 L 312.6,254.6 L 314.7,256.7 L 316.5,249.6 L 319.1,251.9 L 330.5,252.1 L 331.9,247.9 L 333.7,247.7 L 335.9,265.3 L 357.8,263.3 L 361.5,288.1 L 358.8,288.9 L 359.4,291.7 L 362.4,290.9 L 363.2,297.0 L 365.3,296.1 L 365.9,298.9 L 363.6,307.5 L 364.9,310.9 L 230.3,308.0 L 214.8,310.8 L 180.1,307.5 L 179.4,311.8 L 177.7,311.5 L 178.9,313.0 L 177.4,317.0 L 166.8,318.5 L 167.4,307.4 L 22.4,303.6 Z"/>
  <path id="2" d="M 182.8,214.2 L 197.5,211.7 L 198.1,200.7 L 190.6,201.9 L 191.3,188.3 L 200.9,186.0 L 200.8,183.4 L 199.4,183.7 L 202.4,166.5 L 196.8,159.7 L 201.0,159.1 L 201.7,155.3 L 204.5,154.9 L 205.0,152.6 L 202.2,152.9 L 205.8,133.3 L 236.2,128.4 L 230.4,109.5 L 322.9,113.0 L 326.2,115.2 L 329.1,122.4 L 323.4,126.8 L 323.0,135.6 L 332.5,148.0 L 331.2,152.1 L 336.3,153.0 L 336.9,155.5 L 334.4,156.8 L 359.3,179.3 L 368.9,170.0 L 373.7,170.7 L 374.7,161.0 L 380.9,161.4 L 388.7,157.9 L 393.3,162.0 L 390.5,156.6 L 394.2,153.7 L 403.3,165.2 L 400.3,169.5 L 397.8,182.0 L 399.8,182.5 L 399.9,200.5 L 398.3,206.3 L 403.6,204.7 L 410.1,207.3 L 408.5,213.4 L 417.8,215.4 L 424.2,221.5 L 425.6,226.0 L 437.2,240.7 L 427.9,243.6 L 424.6,255.5 L 428.7,261.9 L 434.4,263.1 L 435.3,266.7 L 433.1,266.8 L 433.3,272.6 L 431.1,277.1 L 440.2,288.2 L 447.2,289.3 L 446.6,308.8 L 450.4,305.9 L 450.2,307.8 L 453.4,307.6 L 455.9,301.0 L 455.2,312.7 L 382.7,315.5 L 382.5,311.1 L 364.9,310.9 L 363.6,307.5 L 365.8,298.5 L 365.3,296.1 L 363.2,297.0 L 362.4,290.9 L 359.4,291.7 L 358.8,288.9 L 361.5,288.1 L 357.8,263.3 L 335.9,265.3 L 333.7,247.7 L 331.9,247.9 L 330.5,252.1 L 319.1,251.9 L 316.5,249.6 L 314.7,256.7 L 312.6,254.6 L 309.9,261.4 L 310.5,266.5 L 308.9,266.0 L 307.5,258.6 L 301.4,246.0 L 287.7,248.6 L 285.4,252.1 L 283.2,252.3 L 282.7,250.1 L 278.2,251.4 L 276.0,257.4 L 272.9,257.1 L 272.4,259.3 L 268.7,258.3 L 269.3,254.7 L 267.5,255.3 L 265.6,258.6 L 262.7,258.7 L 264.1,263.6 L 256.2,264.7 L 254.4,251.5 L 245.2,252.8 L 241.6,229.8 L 219.1,230.8 L 210.8,236.2 L 197.5,234.4 L 183.7,236.6 Z"/>
  <path id="3" d="M 323.5,113.0 L 490.0,118.6 L 500.3,105.5 L 504.9,104.3 L 513.8,106.9 L 512.9,91.8 L 520.6,84.7 L 524.3,83.0 L 538.8,87.3 L 541.0,79.6 L 552.7,86.8 L 548.4,91.5 L 539.9,108.4 L 527.9,105.9 L 523.8,111.7 L 523.9,115.0 L 521.4,118.1 L 525.5,125.8 L 521.7,132.1 L 521.4,136.6 L 524.5,134.2 L 525.4,142.7 L 521.4,143.8 L 519.2,142.0 L 517.4,146.9 L 513.9,143.9 L 515.9,141.5 L 498.4,130.2 L 494.0,130.2 L 493.4,140.3 L 489.4,142.6 L 489.9,144.7 L 481.7,157.7 L 485.7,160.7 L 484.8,162.6 L 487.7,166.5 L 484.2,180.4 L 491.0,185.0 L 488.0,185.9 L 487.7,188.4 L 485.8,187.7 L 474.6,199.8 L 468.3,196.6 L 466.1,200.8 L 462.7,199.8 L 462.0,201.6 L 459.3,199.4 L 459.7,197.3 L 458.5,201.5 L 452.8,202.7 L 449.1,223.5 L 435.4,224.5 L 428.2,228.9 L 424.2,221.5 L 417.8,215.4 L 408.5,213.4 L 410.1,207.3 L 403.6,204.7 L 398.3,206.3 L 399.9,200.5 L 399.8,182.5 L 397.8,182.0 L 400.3,169.5 L 403.3,165.2 L 394.2,153.7 L 390.5,156.6 L 393.3,162.0 L 388.7,157.9 L 380.9,161.4 L 374.7,161.0 L 373.7,170.7 L 368.9,170.0 L 359.3,179.3 L 334.4,156.8 L 336.9,155.5 L 336.5,153.3 L 331.2,152.1 L 332.5,148.0 L 324.3,139.4 L 323.3,127.0 L 329.1,122.4 L 326.7,115.9 Z"/>
  <path id="4" d="M 424.6,255.5 L 427.9,243.6 L 433.4,241.2 L 441.6,241.7 L 441.4,244.9 L 449.2,247.2 L 449.2,251.7 L 453.9,253.0 L 454.7,256.0 L 445.7,263.1 L 446.8,270.2 L 453.9,272.6 L 458.1,267.8 L 467.0,266.7 L 466.6,264.0 L 479.3,260.4 L 477.8,257.5 L 480.6,256.3 L 479.6,254.6 L 482.4,251.0 L 481.8,246.6 L 488.1,246.8 L 482.4,228.3 L 495.1,224.0 L 498.1,220.9 L 497.1,216.7 L 510.9,212.7 L 510.8,214.4 L 516.8,214.9 L 515.3,217.7 L 516.8,222.5 L 519.1,223.4 L 525.1,217.8 L 529.8,217.8 L 527.7,225.2 L 521.2,232.8 L 517.4,231.0 L 511.8,236.9 L 510.6,240.9 L 503.7,242.4 L 499.0,259.9 L 495.2,260.5 L 494.0,275.3 L 487.9,275.1 L 488.7,281.8 L 492.9,292.5 L 494.7,289.7 L 501.7,287.4 L 503.2,280.2 L 512.7,274.0 L 512.4,271.9 L 514.5,270.4 L 517.7,277.4 L 520.7,278.2 L 524.1,286.1 L 523.0,297.0 L 535.4,290.5 L 540.8,322.1 L 533.9,320.5 L 535.3,329.4 L 533.5,334.2 L 537.5,331.0 L 536.9,332.4 L 541.6,336.8 L 544.4,335.4 L 544.8,339.7 L 548.4,339.5 L 550.0,344.4 L 552.9,341.2 L 554.3,343.4 L 553.3,345.5 L 555.6,344.3 L 570.2,353.0 L 569.7,360.1 L 575.0,367.0 L 574.5,376.6 L 569.0,377.5 L 572.1,385.4 L 549.9,400.2 L 550.4,390.4 L 537.1,387.2 L 536.0,392.2 L 530.8,393.3 L 528.9,401.6 L 527.1,401.3 L 526.3,404.8 L 517.5,404.6 L 519.1,400.4 L 518.8,398.0 L 522.7,395.5 L 524.9,387.9 L 528.8,384.5 L 528.3,382.0 L 530.8,377.8 L 528.3,379.8 L 527.3,377.1 L 527.5,372.7 L 530.1,370.5 L 527.3,367.7 L 525.9,378.4 L 527.1,381.9 L 525.1,385.3 L 523.7,384.6 L 521.5,393.1 L 514.5,401.0 L 511.2,401.7 L 510.8,398.2 L 508.0,401.4 L 506.5,400.3 L 506.5,399.8 L 507.0,399.8 L 506.7,399.2 L 508.1,398.4 L 508.6,397.2 L 504.6,396.0 L 504.5,400.2 L 497.0,388.7 L 482.8,380.6 L 480.1,375.5 L 478.7,368.4 L 481.3,364.9 L 479.8,362.4 L 481.5,357.2 L 480.5,346.9 L 471.4,348.4 L 471.4,312.5 L 455.2,312.7 L 455.9,301.0 L 453.4,307.6 L 450.2,307.8 L 450.4,305.9 L 446.6,308.8 L 447.2,289.3 L 440.2,288.2 L 431.1,277.1 L 433.3,272.6 L 433.1,266.8 L 435.3,266.7 L 434.4,263.1 L 428.7,261.9 Z M 517.8,402.1 L 518.0,402.2 L 517.5,401.9 Z M 529.1,370.4 L 528.8,370.6 L 528.9,370.1 Z"/>
  <path id="5" d="M 428.3,229.1 L 435.4,224.5 L 449.1,223.5 L 452.8,202.7 L 458.5,201.5 L 459.7,197.3 L 459.3,199.4 L 462.0,201.6 L 462.7,199.8 L 466.1,200.8 L 468.3,196.6 L 474.6,199.8 L 485.8,187.7 L 487.7,188.4 L 488.2,185.7 L 494.5,186.4 L 501.3,177.7 L 509.0,184.6 L 516.5,178.6 L 516.3,170.4 L 523.7,166.3 L 527.0,174.8 L 533.3,174.5 L 536.4,178.3 L 535.9,182.3 L 541.0,181.8 L 546.9,190.7 L 548.5,189.1 L 550.4,191.7 L 549.9,193.9 L 556.2,194.5 L 558.5,191.2 L 560.7,191.6 L 556.0,196.6 L 554.4,201.4 L 556.7,206.2 L 559.5,207.0 L 559.0,216.1 L 557.6,214.4 L 558.3,211.4 L 553.1,211.2 L 555.1,205.5 L 546.7,201.6 L 545.4,199.4 L 546.4,196.6 L 536.8,199.2 L 536.3,204.5 L 528.6,203.4 L 524.8,198.5 L 523.5,203.2 L 519.2,204.7 L 523.9,208.1 L 526.7,205.3 L 530.5,210.8 L 532.5,210.8 L 531.8,211.9 L 529.8,214.0 L 524.5,211.0 L 517.7,215.4 L 506.3,213.0 L 497.1,216.7 L 498.1,220.9 L 495.1,224.0 L 482.4,228.3 L 488.1,246.8 L 481.8,246.6 L 482.4,251.0 L 479.6,254.6 L 480.6,256.3 L 477.8,257.5 L 479.3,260.4 L 466.6,264.0 L 467.0,266.7 L 458.1,267.8 L 453.9,272.6 L 446.8,270.2 L 445.7,263.1 L 454.7,256.0 L 453.3,252.0 L 449.2,251.7 L 449.2,247.2 L 441.4,244.9 L 441.6,241.7 L 435.8,241.7 L 437.2,240.7 Z M 551.6,213.3 L 550.2,213.5 L 552.4,209.8 Z M 556.6,213.4 L 557.0,213.5 L 556.4,213.5 Z"/>
  <path id="6" d="M 481.7,157.7 L 489.9,144.7 L 489.4,142.6 L 493.4,140.3 L 494.0,130.2 L 498.4,130.2 L 515.9,141.5 L 513.9,143.9 L 517.4,146.9 L 519.2,142.0 L 521.4,143.8 L 526.1,142.1 L 524.5,134.2 L 522.0,136.7 L 521.4,136.6 L 521.7,132.1 L 525.5,125.8 L 521.4,118.1 L 523.9,115.0 L 523.8,111.7 L 527.9,105.9 L 539.9,108.4 L 548.4,91.5 L 552.7,87.1 L 541.0,79.6 L 543.0,75.1 L 545.8,72.2 L 559.5,69.4 L 567.8,64.7 L 576.7,65.5 L 584.5,71.7 L 591.2,68.4 L 592.1,82.8 L 588.9,83.1 L 589.2,81.2 L 581.0,84.8 L 575.3,81.4 L 585.6,89.4 L 590.0,88.9 L 590.6,85.7 L 592.4,88.2 L 590.3,84.4 L 592.7,84.6 L 595.4,101.2 L 601.1,116.4 L 598.0,117.2 L 595.0,111.4 L 592.1,98.5 L 591.4,101.8 L 589.6,102.0 L 591.5,109.8 L 588.8,108.0 L 586.0,108.8 L 590.8,110.1 L 588.4,110.9 L 591.9,113.8 L 589.5,115.5 L 589.1,117.3 L 594.5,114.5 L 597.2,118.9 L 593.5,119.0 L 589.8,123.1 L 594.6,119.1 L 607.1,123.2 L 609.8,128.3 L 602.4,124.1 L 599.0,125.3 L 598.0,126.4 L 603.2,125.0 L 606.1,126.8 L 600.2,129.0 L 603.6,131.2 L 602.5,132.0 L 603.0,134.7 L 604.2,131.5 L 611.9,132.4 L 612.0,128.1 L 618.0,130.2 L 620.3,132.9 L 617.5,137.2 L 618.0,139.8 L 615.1,139.1 L 614.5,143.1 L 616.3,139.9 L 619.9,141.1 L 618.4,137.4 L 620.3,133.7 L 620.9,136.9 L 622.1,134.2 L 619.9,128.6 L 627.8,120.7 L 633.1,121.1 L 632.4,128.7 L 638.2,128.8 L 639.1,132.4 L 638.6,136.3 L 630.0,141.3 L 630.3,144.9 L 625.7,151.4 L 623.6,152.0 L 621.9,151.2 L 623.5,151.8 L 625.7,147.9 L 624.4,144.4 L 625.6,145.1 L 626.6,141.5 L 621.1,143.9 L 619.4,149.5 L 613.9,154.1 L 609.8,154.4 L 609.0,152.3 L 599.4,158.1 L 601.1,154.0 L 589.9,160.2 L 576.4,163.4 L 577.0,167.2 L 580.3,164.3 L 581.2,165.3 L 577.1,170.2 L 576.4,169.0 L 575.9,169.3 L 577.5,173.2 L 576.6,173.6 L 576.1,175.4 L 579.0,174.4 L 581.6,168.8 L 586.1,169.6 L 583.2,177.2 L 588.3,173.8 L 587.2,177.6 L 579.6,179.7 L 574.8,186.1 L 569.9,184.0 L 566.2,186.9 L 565.8,192.8 L 567.6,192.6 L 566.4,193.8 L 567.5,195.4 L 571.7,196.1 L 572.4,198.8 L 569.7,196.8 L 565.9,198.8 L 565.5,187.1 L 564.1,186.4 L 560.3,190.6 L 558.3,189.9 L 556.2,194.5 L 549.9,193.9 L 550.4,191.7 L 548.5,189.1 L 546.9,190.7 L 541.0,181.8 L 535.9,182.3 L 536.4,178.3 L 533.3,174.5 L 527.0,174.8 L 523.7,166.3 L 516.3,170.4 L 516.5,178.6 L 509.0,184.6 L 501.3,177.7 L 494.5,186.4 L 492.6,186.4 L 484.2,180.4 L 487.7,166.5 L 484.8,162.6 L 485.7,160.7 Z M 605.1,130.0 L 607.2,130.5 L 605.6,131.3 Z M 587.9,86.4 L 587.9,88.9 L 586.5,87.6 Z M 606.0,128.5 L 603.6,130.0 L 602.2,128.7 Z M 594.2,160.0 L 596.3,161.3 L 594.1,161.2 Z M 598.6,165.2 L 597.4,166.2 L 597.0,165.8 L 597.5,164.2 Z M 642.9,134.8 L 642.4,136.3 L 641.4,136.1 Z M 638.9,128.7 L 639.5,129.5 L 638.7,129.2 Z M 591.0,170.9 L 592.3,171.3 L 592.2,172.0 Z M 593.3,111.1 L 594.7,112.6 L 595.1,113.2 L 593.7,112.3 Z M 639.8,137.6 L 639.8,138.8 L 638.9,138.2 Z M 612.0,154.9 L 611.0,155.7 L 611.5,155.0 Z M 587.6,178.9 L 587.8,180.1 L 587.3,179.9 Z M 590.0,115.7 L 590.3,116.3 L 589.9,116.4 Z M 598.9,159.4 L 598.6,160.1 L 598.4,159.7 Z M 591.9,107.5 L 591.6,107.8 L 591.7,107.3 Z M 595.2,161.9 L 595.6,162.2 L 595.1,162.4 Z M 632.2,140.6 L 632.7,140.5 L 632.2,140.8 Z M 581.8,181.7 L 581.4,181.8 L 581.4,181.5 Z M 606.7,154.4 L 606.3,154.2 L 606.4,154.1 Z M 623.3,145.7 L 623.8,145.7 L 623.3,145.9 Z M 592.1,167.4 L 592.4,167.4 L 591.8,167.6 Z M 592.2,108.1 L 592.0,108.3 L 592.1,107.9 Z M 592.4,172.2 L 592.2,172.5 L 592.1,172.1 Z M 598.6,158.5 L 598.4,158.8 L 598.4,158.6 Z M 599.0,158.0 L 598.7,158.3 L 598.8,158.0 Z M 586.8,166.6 L 587.1,166.5 L 587.0,166.8 Z M 617.2,151.9 L 617.4,152.1 L 617.1,152.1 Z M 576.8,174.2 L 576.5,174.4 L 576.5,174.4 Z M 596.1,167.3 L 596.3,167.2 L 596.1,167.6 Z M 599.3,158.1 L 599.2,158.4 L 599.1,158.1 Z M 596.4,168.4 L 596.7,168.3 L 596.7,168.6 Z M 572.1,196.5 L 572.4,196.3 L 572.2,196.5 Z M 594.6,171.8 L 594.8,171.9 L 594.7,172.0 Z M 585.9,164.8 L 585.9,165.1 L 585.8,165.1 Z M 595.3,157.5 L 595.5,157.6 L 595.5,157.8 Z"/>
  <path id="7" d="M 515.3,217.7 L 524.5,211.0 L 529.8,214.0 L 532.3,211.2 L 526.7,205.3 L 523.9,208.1 L 519.2,204.7 L 523.5,203.2 L 525.3,198.3 L 528.6,203.4 L 536.3,204.5 L 536.8,199.2 L 546.4,196.6 L 545.4,199.4 L 546.8,201.8 L 555.1,205.5 L 553.5,208.6 L 548.8,209.8 L 550.2,211.2 L 551.1,209.5 L 552.4,209.8 L 550.2,213.5 L 555.2,215.0 L 551.0,216.0 L 551.1,218.5 L 546.9,213.6 L 543.5,213.6 L 543.3,208.6 L 546.1,207.6 L 537.0,206.8 L 542.3,208.4 L 541.9,211.3 L 538.2,211.5 L 536.0,215.3 L 541.2,217.4 L 538.1,225.4 L 541.3,226.6 L 539.9,232.0 L 541.1,240.0 L 532.5,241.5 L 532.6,249.6 L 536.1,254.6 L 532.6,256.7 L 534.8,259.4 L 541.9,258.7 L 542.4,262.2 L 548.3,264.4 L 545.0,279.1 L 522.1,250.4 L 521.3,244.7 L 519.3,244.5 L 518.9,242.4 L 529.8,228.5 L 530.6,226.5 L 527.0,225.6 L 529.8,217.8 L 525.1,217.8 L 519.1,223.4 L 516.8,222.5 Z M 559.0,216.1 L 561.1,216.1 L 562.4,219.5 L 561.4,219.0 Z M 560.9,225.1 L 557.3,229.1 L 562.2,223.6 Z M 552.0,226.3 L 549.9,229.5 L 548.7,228.5 L 550.7,226.5 Z M 556.0,224.1 L 555.0,226.3 L 554.3,224.4 Z M 567.8,223.3 L 568.6,224.8 L 566.7,222.6 Z M 568.1,226.4 L 567.6,227.1 L 567.2,225.7 Z M 562.6,228.3 L 562.0,229.3 L 561.4,228.9 Z M 566.3,224.6 L 565.2,224.9 L 564.8,224.3 Z"/>
  <path id="8" d="M 487.9,275.2 L 494.0,275.3 L 495.2,260.5 L 499.0,259.9 L 503.7,242.3 L 510.6,240.9 L 514.5,233.6 L 517.4,231.0 L 521.1,232.9 L 526.6,225.2 L 530.6,226.5 L 527.9,232.6 L 518.9,242.4 L 519.3,244.5 L 521.3,244.7 L 522.1,250.4 L 545.0,279.1 L 548.3,264.4 L 542.4,262.2 L 541.9,258.7 L 534.8,259.4 L 532.6,256.7 L 536.1,254.6 L 532.6,249.6 L 532.5,241.5 L 541.1,240.0 L 539.9,232.0 L 540.6,231.6 L 540.6,228.9 L 541.4,227.8 L 541.3,226.6 L 538.1,225.4 L 540.0,219.0 L 542.9,216.3 L 550.4,221.6 L 542.3,224.3 L 545.4,228.3 L 542.9,227.8 L 542.5,230.6 L 541.0,230.3 L 543.2,231.4 L 543.7,237.3 L 546.0,234.6 L 544.1,231.8 L 547.6,233.8 L 550.0,230.8 L 555.2,230.3 L 550.6,231.7 L 550.8,234.3 L 547.6,235.4 L 555.4,242.6 L 562.1,240.1 L 562.1,237.7 L 562.8,243.3 L 558.8,243.2 L 561.2,244.4 L 560.8,246.6 L 555.4,244.7 L 559.6,246.9 L 558.3,250.0 L 560.5,252.9 L 563.1,250.3 L 559.6,247.9 L 568.2,244.3 L 568.3,242.6 L 569.4,244.7 L 566.2,245.4 L 565.7,247.2 L 574.5,242.7 L 574.1,244.6 L 577.8,247.3 L 579.2,244.2 L 577.5,239.5 L 580.4,242.7 L 582.9,241.8 L 580.4,240.7 L 580.8,238.7 L 575.9,238.8 L 578.6,238.5 L 576.7,230.8 L 568.8,231.1 L 577.3,229.1 L 583.6,240.8 L 597.2,245.2 L 598.3,246.8 L 597.0,249.6 L 600.7,248.8 L 601.9,245.0 L 604.6,252.6 L 613.4,259.7 L 611.6,258.6 L 610.4,260.7 L 613.1,260.8 L 612.1,264.4 L 613.1,267.9 L 613.0,269.9 L 612.5,270.6 L 606.6,271.7 L 599.6,265.3 L 586.6,262.1 L 563.2,275.5 L 573.1,293.3 L 570.9,293.7 L 574.3,311.2 L 573.7,321.2 L 571.1,324.0 L 571.5,328.2 L 566.6,329.8 L 563.8,337.1 L 556.8,334.9 L 552.8,336.7 L 553.0,341.6 L 553.5,342.1 L 553.8,341.8 L 554.1,341.9 L 554.4,343.4 L 554.3,343.9 L 554.2,344.3 L 553.3,345.5 L 554.0,341.9 L 553.8,341.8 L 553.7,342.2 L 553.4,342.2 L 552.2,341.0 L 550.0,344.4 L 548.4,339.5 L 544.8,339.7 L 544.4,335.4 L 541.6,336.8 L 536.9,332.4 L 537.5,331.0 L 533.5,334.2 L 535.3,329.4 L 533.9,320.5 L 540.8,322.1 L 535.4,290.5 L 523.0,297.0 L 524.1,286.1 L 520.7,278.2 L 517.7,277.4 L 514.4,270.4 L 512.4,271.9 L 512.7,274.0 L 503.2,280.2 L 501.7,287.4 L 494.7,289.7 L 492.9,292.5 Z M 541.3,217.1 L 537.4,217.2 L 536.0,215.3 L 537.6,212.3 L 541.3,212.2 Z M 614.7,271.2 L 619.7,282.0 L 616.2,276.4 L 615.9,273.9 L 614.1,273.8 Z M 567.8,232.3 L 563.0,235.0 L 567.8,231.4 Z M 570.2,240.6 L 568.5,241.4 L 568.1,241.0 Z M 576.7,222.8 L 575.7,223.9 L 575.9,222.7 Z M 573.8,237.2 L 573.7,237.9 L 572.9,237.5 Z M 574.9,222.2 L 573.8,223.4 L 574.8,222.1 Z M 573.9,220.6 L 574.7,220.6 L 574.3,221.1 Z M 578.4,219.8 L 578.6,220.3 L 577.4,220.3 Z M 575.4,221.0 L 576.8,220.9 L 575.3,221.2 Z M 570.8,240.8 L 571.3,241.6 L 570.8,241.4 Z M 596.2,243.8 L 596.5,244.0 L 596.2,244.3 Z M 563.5,242.5 L 563.5,242.8 L 563.2,242.6 Z M 576.2,243.5 L 576.6,243.3 L 576.6,243.5 Z M 589.9,241.0 L 589.4,240.9 L 589.9,240.7 Z M 576.9,244.0 L 576.5,244.3 L 576.4,244.2 Z M 601.6,244.4 L 601.3,244.1 L 601.7,244.1 Z M 575.5,244.2 L 576.0,244.3 L 575.3,244.4 Z M 605.4,248.1 L 605.7,248.2 L 605.3,248.2 Z M 568.5,237.8 L 568.6,237.7 L 568.8,237.9 Z M 580.3,213.5 L 580.0,213.5 L 580.2,213.4 Z M 606.0,248.8 L 606.1,248.9 L 605.9,248.9 Z M 558.6,234.7 L 558.7,234.9 L 558.4,234.9 Z M 577.4,220.5 L 577.3,220.6 L 577.3,220.5 Z M 577.2,220.6 L 577.1,220.7 L 577.1,220.6 Z"/>
  <path id="9" d="M 510.9,410.7 L 518.1,402.4 L 517.5,404.6 L 526.3,404.8 L 527.1,401.3 L 528.9,401.6 L 530.8,393.3 L 536.0,392.2 L 537.1,387.2 L 550.4,390.4 L 549.9,400.2 L 572.1,385.4 L 569.0,377.5 L 574.5,376.6 L 575.0,367.0 L 569.7,360.1 L 570.2,353.0 L 553.9,344.6 L 552.4,338.1 L 556.8,334.9 L 563.8,337.1 L 566.6,329.8 L 571.5,328.2 L 571.1,324.0 L 573.7,321.2 L 574.3,311.2 L 570.9,293.7 L 573.1,293.3 L 563.2,275.5 L 586.6,262.1 L 599.6,265.3 L 606.6,271.7 L 612.2,271.2 L 628.4,291.6 L 629.2,294.3 L 627.1,297.4 L 628.1,303.1 L 636.9,316.4 L 634.4,315.7 L 630.6,319.6 L 629.5,319.3 L 634.7,314.0 L 627.9,303.7 L 622.7,305.0 L 622.4,310.4 L 620.6,312.0 L 622.6,312.5 L 622.3,315.6 L 620.4,316.2 L 619.0,312.4 L 618.5,312.5 L 613.5,315.7 L 613.9,318.4 L 616.2,318.6 L 616.3,321.5 L 620.6,324.3 L 623.9,330.7 L 631.3,333.2 L 629.5,330.9 L 626.3,323.8 L 633.0,334.5 L 640.8,332.1 L 650.3,338.8 L 648.5,343.3 L 651.7,349.4 L 653.1,358.2 L 649.6,369.8 L 659.7,381.3 L 646.8,382.1 L 644.8,383.6 L 642.8,387.0 L 639.5,389.8 L 633.9,391.4 L 632.1,392.9 L 633.2,390.6 L 630.6,389.8 L 631.6,390.7 L 629.4,391.2 L 629.9,393.7 L 624.3,391.9 L 623.1,393.5 L 624.8,392.9 L 628.4,396.8 L 625.0,396.0 L 626.9,398.6 L 621.5,406.0 L 626.0,399.1 L 612.9,394.3 L 615.9,391.5 L 614.8,387.8 L 614.3,391.4 L 609.0,392.8 L 611.3,397.0 L 606.9,394.4 L 606.3,389.7 L 606.3,394.4 L 613.4,401.2 L 612.7,403.2 L 609.5,401.7 L 612.8,406.0 L 612.8,410.3 L 607.6,405.7 L 609.5,406.4 L 606.5,401.8 L 602.1,399.0 L 606.8,411.2 L 603.8,409.1 L 602.5,410.1 L 604.1,417.1 L 601.4,420.4 L 600.1,417.5 L 590.7,416.1 L 589.6,418.2 L 593.8,420.4 L 594.8,423.1 L 592.7,425.1 L 591.1,422.0 L 587.5,425.2 L 580.7,422.4 L 584.4,429.2 L 583.7,431.2 L 584.1,433.5 L 586.0,433.1 L 583.5,437.2 L 580.8,432.1 L 580.1,424.9 L 575.7,422.6 L 574.9,425.1 L 572.4,425.3 L 573.0,423.4 L 569.8,416.2 L 568.6,419.3 L 569.2,422.7 L 570.5,426.6 L 572.2,425.4 L 570.8,426.7 L 573.8,434.8 L 568.8,428.1 L 567.2,428.6 L 567.8,434.3 L 565.6,438.6 L 560.9,432.0 L 559.9,435.3 L 560.8,437.1 L 561.8,436.4 L 563.6,436.2 L 567.7,449.6 L 563.7,450.2 L 562.3,456.7 L 561.0,452.6 L 557.3,451.8 L 557.3,449.8 L 554.9,447.7 L 556.9,450.9 L 556.4,458.1 L 548.1,458.4 L 544.2,462.0 L 544.4,466.3 L 542.3,460.2 L 533.2,458.0 L 542.0,456.2 L 545.0,460.2 L 546.0,459.9 L 542.0,455.5 L 542.4,452.2 L 540.4,443.8 L 537.6,443.3 L 537.2,440.7 L 536.5,442.7 L 539.4,450.4 L 537.9,455.6 L 534.4,454.7 L 529.6,447.4 L 526.8,447.1 L 526.9,449.0 L 531.7,453.8 L 531.7,458.0 L 533.8,458.8 L 526.8,461.5 L 524.5,434.4 L 522.5,430.0 L 524.3,414.9 Z M 613.6,272.5 L 613.6,272.5 L 613.7,272.5 Z M 731.5,295.7 L 743.9,300.3 L 752.2,306.3 L 759.4,315.7 L 767.8,332.3 L 777.5,369.4 L 777.3,370.6 L 776.7,371.2 L 776.2,366.6 L 771.5,365.6 L 775.8,368.5 L 776.2,371.3 L 775.6,372.9 L 775.3,370.9 L 772.5,370.4 L 767.7,378.3 L 773.3,370.9 L 775.9,376.1 L 778.0,375.4 L 778.3,372.3 L 779.8,391.8 L 779.9,406.0 L 779.2,410.2 L 779.2,392.6 L 777.2,388.3 L 776.4,390.5 L 774.4,389.3 L 775.4,386.4 L 777.5,386.7 L 775.5,384.7 L 773.3,386.2 L 772.5,382.2 L 770.8,383.2 L 773.1,387.2 L 771.0,388.7 L 771.7,392.6 L 766.8,393.6 L 765.5,398.8 L 769.9,397.5 L 771.9,398.4 L 772.4,399.9 L 770.1,401.7 L 776.3,402.6 L 775.0,405.4 L 776.3,410.5 L 772.8,417.0 L 762.2,411.6 L 723.2,418.5 L 725.3,417.8 L 724.6,416.0 L 727.6,413.1 L 726.9,411.6 L 722.9,416.8 L 722.7,419.6 L 712.5,424.1 L 708.2,429.5 L 707.5,424.8 L 709.6,424.4 L 707.9,425.6 L 709.6,426.3 L 710.7,423.0 L 713.4,423.1 L 713.0,420.6 L 706.1,418.5 L 706.7,423.0 L 703.0,422.1 L 697.6,424.9 L 691.2,421.9 L 686.0,424.1 L 687.3,425.5 L 685.6,428.2 L 679.6,430.4 L 681.6,427.1 L 679.3,421.4 L 672.9,426.3 L 673.5,429.1 L 670.7,432.0 L 669.4,435.3 L 665.9,431.6 L 663.9,436.7 L 665.9,434.7 L 667.7,438.3 L 669.1,436.1 L 665.9,441.4 L 662.8,444.7 L 652.9,447.2 L 655.2,445.6 L 655.6,442.4 L 653.2,437.9 L 650.8,445.3 L 652.2,446.1 L 652.3,447.4 L 648.3,445.8 L 632.1,449.1 L 628.5,451.0 L 625.6,456.5 L 619.9,452.6 L 618.9,454.5 L 619.5,451.6 L 621.2,452.6 L 623.2,449.4 L 625.9,449.4 L 624.2,448.8 L 625.8,442.3 L 628.6,439.0 L 626.1,430.8 L 627.9,432.8 L 629.6,430.1 L 626.3,429.3 L 628.9,425.3 L 628.0,421.1 L 626.0,421.3 L 626.5,419.1 L 633.1,416.0 L 625.8,413.2 L 628.5,411.9 L 631.3,414.0 L 631.7,411.4 L 634.4,410.4 L 632.6,409.7 L 633.1,407.5 L 631.2,408.5 L 631.5,405.5 L 627.7,409.0 L 624.3,408.5 L 633.6,403.3 L 634.2,395.5 L 630.9,396.6 L 630.2,399.5 L 628.9,398.5 L 632.5,393.1 L 640.9,389.4 L 646.6,382.7 L 659.5,382.1 L 673.7,390.0 L 702.9,393.8 L 706.4,396.7 L 700.7,397.8 L 698.1,395.7 L 691.2,396.9 L 690.2,395.5 L 689.1,395.1 L 687.4,396.1 L 688.6,396.2 L 689.2,395.5 L 691.5,399.1 L 694.7,401.5 L 709.2,400.6 L 718.8,391.3 L 751.0,382.8 L 760.2,378.4 L 764.6,372.7 L 762.8,353.1 L 765.8,349.5 L 759.4,346.9 L 764.3,347.9 L 763.5,344.8 L 766.4,343.4 L 765.7,341.9 L 760.5,344.3 L 757.7,340.2 L 759.8,340.9 L 759.7,337.8 L 750.2,337.7 L 749.9,339.7 L 753.2,340.4 L 750.4,343.0 L 750.5,352.8 L 748.2,321.7 L 744.4,308.4 L 731.7,300.0 L 726.2,302.2 L 721.1,309.0 L 724.9,311.2 L 729.1,308.0 L 724.2,312.1 L 720.0,308.4 L 717.1,303.3 L 712.6,299.9 L 719.3,294.6 Z M 637.1,466.1 L 637.3,473.8 L 640.1,473.0 L 637.6,474.9 L 639.6,474.4 L 636.7,480.5 L 641.3,474.2 L 639.8,472.4 L 644.3,469.0 L 647.2,474.2 L 646.7,480.1 L 648.4,484.6 L 644.9,479.4 L 643.2,485.2 L 645.8,483.1 L 645.7,485.5 L 649.0,488.5 L 650.8,487.7 L 648.3,484.8 L 655.7,490.5 L 657.2,490.5 L 657.3,490.2 L 656.9,489.4 L 655.9,489.5 L 657.1,489.4 L 658.0,492.2 L 657.4,490.7 L 655.6,493.4 L 657.0,500.6 L 659.0,502.2 L 656.6,504.1 L 665.6,504.0 L 663.9,500.4 L 658.0,497.9 L 659.0,494.5 L 657.8,496.1 L 656.7,492.7 L 660.8,494.0 L 665.7,489.4 L 667.0,488.9 L 665.2,493.5 L 668.8,494.5 L 669.5,488.1 L 667.8,487.0 L 669.2,485.4 L 666.1,484.2 L 664.6,490.2 L 664.2,487.5 L 666.0,484.1 L 669.1,483.5 L 670.0,489.8 L 669.1,504.0 L 614.0,506.0 L 606.0,509.4 L 600.0,517.7 L 586.7,504.8 L 592.2,502.0 L 600.8,503.5 L 609.4,490.0 L 613.4,486.9 L 615.8,479.8 L 622.0,477.2 L 624.7,472.1 Z M 754.1,491.6 L 760.6,499.0 L 773.1,524.1 L 770.8,532.6 L 762.1,535.7 L 740.8,534.7 L 727.9,530.4 L 714.8,522.8 L 720.5,525.4 L 723.9,523.2 L 723.3,520.8 L 720.6,521.1 L 723.0,519.4 L 742.6,518.7 L 745.5,520.8 L 744.0,521.8 L 745.9,525.3 L 751.1,519.2 L 758.1,517.9 L 759.6,516.2 L 757.7,513.4 L 764.8,510.1 L 761.5,504.9 L 750.7,517.6 L 747.8,520.0 L 745.1,518.7 L 751.4,515.5 L 758.0,506.7 L 759.6,498.4 Z M 613.4,456.5 L 615.8,458.2 L 613.8,460.2 L 615.0,461.8 L 613.9,463.1 L 603.7,467.0 L 603.3,471.8 L 597.1,476.0 L 593.6,475.0 L 594.4,470.3 L 597.6,467.3 Z M 771.4,419.3 L 771.5,421.0 L 767.5,436.7 L 767.2,445.2 L 765.1,448.3 L 762.2,448.5 L 761.3,445.9 L 765.5,441.0 L 766.7,430.5 L 768.9,428.8 L 768.4,426.0 L 769.1,427.5 Z M 584.5,479.5 L 580.6,483.0 L 572.2,482.4 L 573.3,479.7 L 577.2,480.2 L 582.7,475.1 Z M 712.3,516.2 L 713.8,519.6 L 709.2,519.9 L 710.4,521.2 L 707.8,518.9 L 705.8,515.8 L 705.7,514.6 Z M 592.0,474.0 L 593.0,476.9 L 587.2,477.4 L 586.0,475.5 L 587.9,472.9 Z M 567.7,480.4 L 571.8,483.2 L 562.8,486.0 Z M 680.0,424.9 L 677.9,425.9 L 679.3,429.8 L 674.8,428.1 L 677.7,423.9 Z M 588.0,529.8 L 594.6,529.9 L 593.8,532.6 Z M 587.0,430.7 L 589.9,434.4 L 591.5,434.4 L 590.2,437.1 L 586.1,433.2 Z M 620.8,456.1 L 618.3,459.5 L 615.9,457.6 Z M 702.7,507.2 L 698.9,508.1 L 700.0,509.7 L 698.0,507.7 Z M 777.0,415.9 L 775.2,420.4 L 774.0,421.0 L 774.0,417.7 Z M 775.1,399.3 L 773.9,399.0 L 772.7,397.8 L 775.3,396.7 Z M 616.2,455.2 L 614.8,457.1 L 614.1,456.9 L 613.9,455.4 Z M 539.1,454.4 L 541.4,455.9 L 538.6,455.8 Z M 679.4,430.2 L 674.1,430.8 L 672.8,429.9 L 674.0,430.7 L 675.2,429.5 Z M 629.9,316.4 L 628.9,315.5 L 629.8,314.1 Z M 568.1,474.9 L 570.5,474.8 L 568.9,476.4 Z M 630.6,407.4 L 630.5,410.5 L 630.3,412.2 L 628.2,409.1 Z M 631.8,400.1 L 633.5,399.7 L 632.5,402.6 Z M 776.4,372.0 L 777.0,373.3 L 776.0,373.6 Z M 775.6,405.6 L 775.9,407.1 L 775.5,407.1 Z M 774.5,395.0 L 773.5,394.5 L 774.8,394.0 Z M 692.7,399.6 L 693.9,399.3 L 694.5,399.8 Z M 540.4,448.7 L 541.2,448.9 L 540.6,449.5 Z M 691.8,398.4 L 692.6,399.5 L 691.7,399.0 Z M 570.1,420.0 L 570.5,421.0 L 569.8,420.4 Z M 772.8,392.6 L 772.3,393.5 L 772.1,392.5 Z M 698.3,398.7 L 697.0,398.7 L 696.8,398.4 Z M 724.1,416.3 L 723.2,417.4 L 723.1,417.2 Z M 695.3,399.4 L 694.1,399.3 L 694.1,398.8 Z M 605.3,403.7 L 606.1,404.1 L 605.1,403.9 Z M 540.2,452.3 L 540.4,453.2 L 539.6,453.7 Z M 696.9,396.9 L 696.2,397.3 L 695.8,396.8 Z M 700.3,509.5 L 702.3,509.7 L 701.4,510.1 L 700.6,509.8 Z M 616.4,459.0 L 615.7,459.0 L 616.2,458.2 Z M 628.1,394.5 L 628.4,393.8 L 628.6,394.0 Z M 534.3,456.6 L 535.2,456.8 L 533.9,457.0 Z M 540.2,450.1 L 540.8,450.3 L 541.0,451.0 Z M 571.8,425.2 L 571.3,425.0 L 571.8,424.4 Z M 533.1,454.6 L 533.6,454.9 L 533.3,455.5 Z M 607.7,457.3 L 607.4,457.8 L 607.8,456.7 Z M 697.8,396.7 L 697.8,397.2 L 697.6,396.7 Z M 532.4,453.2 L 532.7,453.8 L 532.3,453.7 L 532.7,454.1 L 532.2,453.8 Z M 690.0,395.6 L 689.9,396.4 L 689.7,395.5 Z M 534.9,455.2 L 535.5,455.9 L 534.7,455.5 Z M 531.5,452.9 L 532.3,453.0 L 532.1,453.5 Z M 530.5,450.6 L 531.0,451.1 L 530.2,451.0 Z M 530.7,451.4 L 531.0,451.9 L 530.3,451.6 Z M 569.4,420.7 L 569.5,421.5 L 569.3,421.3 Z M 615.4,459.4 L 615.6,459.9 L 615.0,460.2 Z M 590.7,424.5 L 591.3,424.9 L 591.0,425.4 Z M 540.4,447.2 L 539.8,447.3 L 540.1,446.9 Z M 539.0,456.0 L 539.0,456.5 L 538.5,456.1 Z M 615.6,457.0 L 615.2,457.2 L 615.0,457.0 Z M 562.1,434.3 L 562.5,434.9 L 562.0,434.7 Z M 539.2,452.2 L 539.6,452.8 L 539.5,452.9 Z M 694.7,398.4 L 694.9,398.8 L 694.4,398.4 Z M 584.1,431.0 L 584.7,431.2 L 584.8,431.6 L 584.2,431.4 Z M 528.5,449.6 L 529.0,449.7 L 529.1,450.1 Z M 582.4,424.5 L 582.3,425.1 L 582.0,424.5 Z M 540.0,452.1 L 540.4,451.9 L 540.4,452.3 Z M 712.0,521.0 L 711.7,521.4 L 711.6,521.1 Z M 771.1,373.5 L 770.8,374.0 L 770.8,373.5 Z M 607.2,403.9 L 607.0,404.4 L 606.8,404.2 Z M 541.1,453.5 L 541.4,453.1 L 541.4,453.9 Z M 533.1,454.1 L 532.9,454.7 L 532.5,454.4 Z M 647.5,485.1 L 647.1,485.3 L 647.5,484.8 Z M 626.2,393.0 L 625.8,392.9 L 626.0,392.7 Z M 615.6,458.8 L 615.4,459.3 L 615.2,459.0 Z M 688.8,395.6 L 688.4,396.0 L 688.7,395.5 Z M 572.2,476.2 L 572.2,476.5 L 571.8,476.0 Z M 533.7,456.8 L 533.4,457.0 L 533.7,456.5 Z M 645.3,481.5 L 645.0,481.5 L 645.2,481.3 Z M 620.1,454.6 L 620.6,454.7 L 620.0,454.8 Z M 533.8,455.1 L 533.8,455.5 L 533.6,455.2 Z M 666.1,433.6 L 665.9,433.9 L 665.8,433.5 Z M 773.5,394.9 L 773.2,394.9 L 773.1,394.5 Z M 593.9,427.1 L 594.2,427.0 L 594.2,427.1 Z M 531.5,452.5 L 531.5,452.8 L 531.4,452.6 Z M 620.2,453.9 L 620.0,454.2 L 620.0,453.9 Z M 540.0,446.0 L 539.8,446.5 L 539.7,446.3 Z M 698.3,396.5 L 698.3,396.7 L 697.9,396.6 Z M 540.0,445.8 L 540.2,445.5 L 540.3,445.8 Z M 571.5,421.7 L 571.3,421.5 L 571.5,421.4 Z M 533.5,455.4 L 533.4,455.7 L 533.2,455.7 Z M 612.5,412.1 L 612.4,412.5 L 612.2,412.3 Z M 657.0,489.9 L 656.7,490.1 L 656.7,490.0 Z M 535.6,455.9 L 536.1,456.1 L 536.2,456.1 Z M 540.8,446.5 L 540.6,446.7 L 540.6,446.1 Z M 529.9,450.5 L 529.8,450.7 L 529.6,450.5 Z M 616.6,459.2 L 616.4,459.6 L 616.4,459.3 Z M 529.6,449.4 L 529.8,449.5 L 529.7,449.8 Z M 603.3,409.8 L 603.1,410.1 L 602.9,409.9 Z M 694.5,400.3 L 694.3,400.4 L 694.1,400.2 Z M 529.5,450.6 L 529.6,450.8 L 529.4,450.7 Z M 533.3,454.4 L 533.1,454.3 L 533.3,454.2 Z M 585.3,430.7 L 585.3,430.9 L 585.0,430.9 Z M 530.5,450.3 L 530.3,450.2 L 530.5,450.2 Z M 531.0,451.3 L 531.1,451.4 L 530.9,451.3 Z M 527.6,448.2 L 527.8,448.1 L 527.8,448.3 Z M 591.0,425.5 L 590.7,425.7 L 591.0,425.4 Z M 608.7,455.7 L 608.6,455.9 L 608.6,455.7 Z M 560.8,435.2 L 560.7,435.3 L 560.7,435.2 Z M 590.4,433.1 L 590.4,433.3 L 590.2,433.2 Z M 530.3,449.1 L 530.3,449.2 L 530.3,449.1 Z M 582.7,424.0 L 582.6,424.1 L 582.6,424.0 Z M 541.8,452.6 L 541.8,452.7 L 541.8,452.6 Z"/>
</svg>
