<svg viewBox="175.8 12.0 448.6 575.9" xmlns="http://www.w3.org/2000/svg">
  <path id="1" d="M 614.8,411.7 L 616.4,449.4 L 616.1,579.9 L 411.6,579.6 L 420.8,578.4 L 422.9,575.1 L 421.1,574.5 L 421.3,572.3 L 426.4,577.4 L 426.4,572.3 L 428.5,573.3 L 432.8,567.9 L 435.3,569.8 L 436.7,567.7 L 442.8,568.7 L 450.8,565.8 L 451.1,562.8 L 456.0,560.0 L 458.0,554.3 L 457.0,551.8 L 459.3,550.4 L 458.1,547.6 L 461.3,546.3 L 458.3,541.0 L 464.5,543.8 L 470.1,541.0 L 471.2,538.0 L 468.5,534.6 L 471.8,534.8 L 473.2,531.6 L 469.0,528.5 L 471.5,525.9 L 478.3,525.5 L 476.0,524.3 L 476.4,521.4 L 481.5,515.8 L 481.7,512.4 L 484.7,510.8 L 485.3,507.9 L 490.6,506.8 L 491.5,501.2 L 496.8,492.9 L 493.6,493.4 L 492.4,490.1 L 495.8,489.5 L 498.9,484.4 L 498.7,481.3 L 507.3,480.1 L 509.0,482.8 L 510.5,479.2 L 515.4,479.8 L 516.1,473.8 L 521.8,467.2 L 526.9,468.0 L 531.3,457.0 L 536.6,455.2 L 543.3,447.4 L 541.9,446.5 L 543.2,444.6 L 540.5,443.2 L 543.2,442.1 L 540.6,440.7 L 541.9,438.0 L 539.2,438.5 L 539.8,436.5 L 536.7,432.0 L 538.7,428.3 L 535.0,428.4 L 535.7,424.4 L 532.5,427.1 L 530.8,424.6 L 533.3,421.4 L 529.8,417.0 L 532.5,417.8 L 533.4,413.9 L 531.4,411.9 L 316.1,410.8 L 316.1,404.3 L 319.0,400.7 L 320.6,392.4 L 334.1,392.2 L 342.0,386.4 L 341.5,371.0 L 346.2,369.5 L 349.5,360.8 L 355.2,360.7 L 355.2,357.2 L 359.2,356.4 L 359.5,318.2 L 364.5,318.2 L 364.5,315.0 L 367.6,314.9 L 367.6,313.2 L 382.7,313.1 L 382.7,304.5 L 385.6,304.4 L 385.2,278.2 L 387.7,278.1 L 391.7,273.2 L 396.7,273.1 L 396.7,268.2 L 393.5,268.2 L 391.8,264.9 L 381.1,265.2 L 383.7,259.9 L 376.1,249.9 L 375.3,252.5 L 368.7,255.8 L 363.5,265.6 L 356.7,269.0 L 353.1,268.4 L 355.2,263.0 L 353.9,259.1 L 356.3,256.0 L 351.9,251.9 L 351.4,247.0 L 345.3,242.7 L 345.0,237.3 L 347.8,232.0 L 345.8,226.7 L 348.4,224.6 L 344.3,214.5 L 343.9,207.5 L 345.7,206.4 L 342.4,193.4 L 348.4,191.4 L 351.4,194.7 L 357.6,192.0 L 360.3,196.3 L 364.3,197.2 L 381.4,185.1 L 388.8,184.4 L 392.1,180.4 L 398.5,178.5 L 399.1,174.7 L 395.0,169.4 L 396.0,165.4 L 391.2,157.5 L 391.9,152.7 L 387.2,147.6 L 366.0,152.0 L 363.3,146.0 L 364.5,140.8 L 360.3,140.8 L 338.1,157.5 L 318.3,123.5 L 291.9,132.1 L 184.5,132.1 L 184.6,20.9 L 443.2,20.0 L 443.2,132.3 L 615.6,132.0 Z"/>
  <path id="2" d="M 485.2,508.1 L 475.9,524.1 L 478.3,525.5 L 471.5,525.9 L 469.0,528.5 L 473.2,531.6 L 471.8,534.8 L 468.5,534.6 L 471.2,538.0 L 470.0,541.1 L 464.5,543.8 L 458.3,541.0 L 461.3,546.3 L 458.1,547.6 L 459.3,550.4 L 457.0,551.8 L 458.0,554.3 L 456.0,560.0 L 451.1,562.8 L 450.8,565.8 L 442.8,568.7 L 436.7,567.7 L 435.3,569.8 L 431.8,568.3 L 428.5,573.3 L 426.4,572.3 L 426.4,577.4 L 421.3,572.3 L 421.1,574.5 L 422.9,575.1 L 420.9,578.3 L 415.2,579.6 L 183.8,579.7 L 184.5,132.1 L 291.9,132.1 L 318.3,123.5 L 338.1,157.5 L 360.3,140.8 L 364.5,140.8 L 363.3,146.0 L 366.0,152.0 L 372.1,152.0 L 382.9,147.7 L 390.0,148.9 L 392.1,153.4 L 391.2,157.5 L 396.0,165.6 L 395.0,169.4 L 399.5,175.7 L 398.5,178.5 L 392.1,180.4 L 388.8,184.4 L 381.4,185.1 L 364.3,197.2 L 360.3,196.3 L 357.6,192.0 L 351.4,194.7 L 348.4,191.4 L 342.4,193.4 L 345.7,206.4 L 343.9,207.5 L 344.3,214.5 L 348.4,224.6 L 345.8,226.7 L 347.8,232.0 L 345.0,237.3 L 345.3,242.7 L 351.4,247.0 L 351.9,251.9 L 356.3,256.0 L 353.9,259.1 L 355.2,263.0 L 353.1,268.4 L 356.7,269.0 L 363.5,265.6 L 368.7,255.8 L 375.3,252.5 L 376.1,249.9 L 383.7,259.9 L 381.1,265.2 L 391.8,264.9 L 393.5,268.2 L 396.7,268.2 L 396.7,273.1 L 391.7,273.2 L 387.7,278.1 L 385.2,278.2 L 385.6,304.4 L 382.7,304.5 L 382.7,313.1 L 367.6,313.2 L 367.6,314.9 L 364.5,315.0 L 364.5,318.2 L 359.5,318.2 L 359.2,356.4 L 355.2,357.2 L 355.2,360.7 L 349.5,360.8 L 346.2,369.5 L 341.5,371.0 L 342.0,386.4 L 334.1,392.2 L 320.6,392.4 L 315.8,409.8 L 355.5,411.7 L 531.4,411.9 L 533.4,414.0 L 532.6,417.6 L 529.8,417.4 L 533.3,421.5 L 530.8,424.7 L 532.5,427.1 L 535.7,424.4 L 535.0,428.4 L 538.7,428.3 L 536.7,432.0 L 539.8,436.5 L 539.2,438.5 L 541.9,438.0 L 540.6,440.7 L 543.2,442.1 L 540.5,443.2 L 543.2,444.6 L 541.9,446.6 L 543.4,447.2 L 536.6,455.2 L 531.3,457.0 L 526.9,468.0 L 521.8,467.2 L 516.1,473.8 L 515.4,479.8 L 510.5,479.2 L 509.0,482.8 L 507.3,480.1 L 498.7,481.3 L 498.9,484.4 L 495.8,489.5 L 492.4,490.1 L 493.6,493.4 L 496.8,492.9 L 491.5,501.2 L 490.6,506.8 Z"/>
</svg>
