<svg viewBox="12.0 45.2 776.0 509.6" xmlns="http://www.w3.org/2000/svg">
  <path id="1" d="M 181.9,53.2 L 187.3,53.2 L 188.6,56.8 L 182.6,57.6 Z M 214.2,53.2 L 398.8,53.4 L 395.5,57.1 L 400.3,62.1 L 403.7,59.3 L 406.9,60.0 L 408.2,62.6 L 406.5,63.9 L 406.7,70.4 L 410.5,74.2 L 410.1,84.1 L 417.9,92.9 L 415.6,93.7 L 415.6,97.0 L 412.3,97.8 L 411.8,101.3 L 406.5,104.5 L 405.2,109.7 L 409.2,113.6 L 411.7,111.0 L 414.9,115.4 L 412.6,118.9 L 413.2,121.0 L 407.3,123.6 L 402.8,122.7 L 400.0,117.6 L 397.7,120.6 L 389.3,120.6 L 389.2,125.0 L 381.0,125.6 L 378.9,128.1 L 378.3,130.6 L 380.8,134.4 L 378.0,140.1 L 380.5,146.5 L 377.7,147.8 L 377.6,151.0 L 384.1,153.5 L 383.3,156.2 L 388.3,163.6 L 387.9,166.1 L 392.3,169.0 L 393.5,172.8 L 388.8,174.5 L 387.9,177.2 L 389.6,180.1 L 383.0,185.5 L 369.5,190.4 L 373.1,196.2 L 368.5,202.5 L 366.9,210.8 L 369.2,213.1 L 369.6,218.3 L 377.6,220.5 L 372.7,227.1 L 378.1,237.2 L 371.9,242.5 L 371.5,246.8 L 373.6,253.4 L 367.8,254.7 L 367.2,258.2 L 362.2,258.3 L 360.9,262.5 L 356.1,265.7 L 354.3,270.6 L 348.6,273.2 L 347.0,277.1 L 341.5,278.9 L 340.9,281.6 L 333.5,282.5 L 317.1,275.3 L 314.8,270.4 L 309.5,268.7 L 308.6,264.1 L 304.9,263.7 L 304.5,260.8 L 299.3,259.7 L 299.9,258.0 L 290.4,253.2 L 287.3,253.5 L 288.3,251.5 L 285.5,250.2 L 287.3,249.5 L 286.8,248.0 L 279.0,245.1 L 277.8,247.4 L 279.1,249.4 L 276.8,249.4 L 276.5,246.8 L 273.7,249.5 L 273.7,244.7 L 271.7,244.6 L 271.6,246.7 L 267.2,247.2 L 265.9,252.2 L 264.4,251.2 L 264.3,246.9 L 267.7,246.2 L 267.2,239.0 L 262.6,237.0 L 261.7,233.6 L 263.4,231.3 L 261.3,231.0 L 261.3,228.1 L 263.9,228.1 L 263.4,224.4 L 267.4,223.4 L 265.5,215.2 L 270.7,207.4 L 271.0,204.7 L 269.0,203.5 L 269.5,199.7 L 274.2,199.4 L 276.6,196.1 L 275.4,193.8 L 277.0,193.2 L 277.3,174.6 L 276.0,170.6 L 277.6,171.5 L 277.7,168.9 L 275.1,167.2 L 274.7,169.4 L 272.7,169.3 L 273.4,170.9 L 270.1,172.4 L 267.4,168.5 L 264.6,162.1 L 272.1,161.5 L 269.9,155.9 L 264.9,151.2 L 267.9,145.5 L 263.7,140.3 L 252.0,140.9 L 253.9,132.6 L 256.4,132.6 L 257.7,127.4 L 262.5,125.0 L 266.2,126.3 L 268.3,121.8 L 265.7,120.9 L 265.0,110.2 L 267.0,102.0 L 261.5,99.9 L 258.9,96.9 L 258.0,92.5 L 250.3,89.7 L 247.6,83.9 L 245.2,84.6 L 245.5,82.0 L 243.1,82.5 L 240.5,79.5 L 238.4,79.6 L 238.4,83.0 L 236.8,83.0 L 238.4,84.0 L 237.9,87.8 L 231.8,84.7 L 224.4,94.1 L 222.4,91.3 L 224.9,84.2 L 219.8,81.4 L 218.8,84.0 L 218.1,75.3 L 210.7,68.8 L 215.0,65.9 L 215.0,63.0 L 207.9,61.7 L 208.5,59.6 L 210.4,57.0 L 212.6,54.7 L 211.6,57.7 L 216.6,58.8 Z M 218.2,89.4 L 226.8,99.2 L 228.6,104.8 L 222.3,99.0 L 220.6,94.7 L 217.9,93.9 Z M 224.5,94.6 L 228.2,94.2 L 228.9,96.2 L 228.0,97.2 Z M 230.7,101.9 L 231.3,104.2 L 230.1,103.4 Z M 262.8,231.3 L 262.8,231.5 L 262.4,231.5 Z M 226.6,92.5 L 226.9,92.3 L 227.0,92.4 Z M 222.8,100.7 L 222.7,100.5 L 223.1,100.6 Z M 222.9,100.2 L 222.9,100.5 L 222.9,100.3 Z M 227.1,105.7 L 227.3,106.0 L 227.3,106.0 Z M 227.4,106.1 L 227.4,106.2 L 227.4,106.1 Z M 231.5,104.3 L 231.6,104.4 L 231.5,104.4 Z"/>
  <path id="2" d="M 238.0,87.9 L 237.9,87.8 L 238.0,87.7 Z M 238.1,87.7 L 238.1,87.6 L 238.1,87.7 Z M 238.1,87.6 L 237.3,84.3 L 238.4,84.0 L 236.8,83.0 L 238.4,83.0 L 238.4,79.6 L 245.5,82.0 L 245.2,84.6 L 247.6,83.9 L 248.9,88.7 L 258.0,92.5 L 259.2,97.7 L 267.0,102.3 L 265.0,110.2 L 265.7,120.9 L 268.3,121.8 L 266.2,126.3 L 262.5,125.0 L 257.7,127.4 L 256.4,132.6 L 253.9,132.6 L 252.0,140.9 L 263.7,140.3 L 267.9,145.5 L 264.9,151.2 L 269.9,155.9 L 272.1,161.5 L 264.6,162.1 L 267.4,168.5 L 270.1,172.4 L 273.4,170.9 L 272.7,169.3 L 274.7,169.4 L 275.1,167.2 L 277.7,168.9 L 277.6,171.5 L 276.0,170.6 L 277.3,174.6 L 277.0,193.2 L 275.4,193.8 L 276.6,196.1 L 274.2,199.4 L 269.4,199.8 L 270.7,207.4 L 268.0,213.2 L 266.0,213.6 L 267.4,223.4 L 263.4,224.4 L 263.9,228.1 L 255.4,227.3 L 254.8,220.3 L 256.6,218.4 L 255.1,216.3 L 255.7,210.8 L 257.8,203.5 L 266.4,198.9 L 265.3,198.6 L 266.8,193.9 L 270.4,195.4 L 267.3,191.9 L 272.4,192.3 L 267.0,190.8 L 267.7,189.3 L 263.6,191.4 L 254.3,182.3 L 251.9,177.0 L 253.4,169.4 L 250.1,165.0 L 252.0,162.3 L 249.1,160.0 L 252.2,154.3 L 250.9,154.1 L 252.2,152.2 L 250.0,152.5 L 249.9,151.7 L 250.4,151.6 L 250.8,151.1 L 251.1,150.8 L 251.1,150.4 L 249.6,151.9 L 249.9,150.8 L 246.9,149.3 L 247.5,148.4 L 241.7,146.0 L 242.0,144.4 L 241.1,143.3 L 240.1,143.2 L 240.0,142.7 L 239.8,142.4 L 240.6,141.6 L 238.2,142.8 L 239.7,139.8 L 239.8,139.0 L 239.1,133.8 L 237.7,130.9 L 240.7,131.9 L 240.0,130.2 L 241.2,129.6 L 241.6,131.6 L 241.9,131.7 L 242.1,128.5 L 240.3,123.0 L 241.5,122.0 L 238.8,115.7 L 233.2,113.0 L 239.5,114.0 L 240.5,117.0 L 243.3,117.0 L 246.4,111.2 L 238.0,101.1 L 240.1,99.2 L 237.3,94.0 L 240.6,88.9 Z M 223.4,138.8 L 225.9,139.8 L 229.3,137.7 L 231.4,142.8 L 229.7,145.3 L 234.2,147.4 L 238.7,153.4 L 233.5,157.4 L 231.0,153.7 L 227.2,154.6 L 226.5,158.0 L 225.3,154.9 L 223.4,156.7 L 223.8,161.2 L 216.5,163.7 L 217.8,165.6 L 224.8,163.8 L 228.8,166.5 L 232.6,175.2 L 233.5,179.3 L 232.2,181.6 L 234.7,185.4 L 235.2,194.0 L 238.2,190.4 L 236.8,182.4 L 239.9,182.4 L 244.5,188.8 L 251.2,191.3 L 253.7,201.9 L 250.8,209.9 L 249.1,208.7 L 250.1,207.2 L 250.1,206.8 L 249.9,206.7 L 245.7,208.5 L 244.3,201.5 L 241.0,196.8 L 234.6,200.9 L 235.0,196.7 L 228.7,191.8 L 230.1,189.5 L 228.1,185.8 L 229.6,180.4 L 228.3,174.2 L 221.8,174.1 L 220.6,170.5 L 213.0,164.2 L 222.3,145.6 Z M 195.5,94.5 L 202.6,94.5 L 215.7,101.9 L 210.2,106.0 L 209.1,107.9 L 210.1,110.3 L 207.1,110.5 L 207.2,107.5 L 202.1,102.8 L 201.9,97.7 L 199.4,97.1 L 198.1,98.5 L 199.3,102.8 L 202.0,105.1 L 202.6,107.4 L 203.9,108.7 L 203.0,111.3 L 195.6,110.9 L 195.5,106.9 L 192.3,104.4 L 191.8,104.5 L 191.3,105.9 L 192.8,110.6 L 190.3,106.2 L 188.0,108.9 L 187.8,106.3 L 195.6,97.2 Z M 175.9,107.4 L 180.3,107.4 L 180.5,110.6 L 189.4,116.3 L 188.8,119.5 L 190.8,121.1 L 192.7,120.1 L 192.5,122.7 L 189.1,121.9 L 188.5,125.7 L 191.8,130.6 L 194.6,129.9 L 194.3,131.9 L 187.1,130.8 L 184.3,128.6 L 184.5,126.3 L 181.6,127.5 L 177.6,124.9 L 173.6,116.0 L 174.0,114.5 L 175.0,115.1 L 175.6,115.1 L 176.0,113.9 L 174.9,114.9 L 174.3,112.2 L 176.3,113.6 L 175.5,111.6 L 177.4,110.3 L 174.1,111.9 Z M 219.5,126.0 L 229.4,121.8 L 228.5,123.3 L 231.8,130.1 L 231.1,126.5 L 233.6,124.8 L 239.2,134.7 L 238.1,143.1 L 235.8,142.6 L 235.4,139.6 L 233.7,138.2 L 233.7,136.3 L 231.9,136.7 L 233.5,136.0 L 234.5,131.6 L 228.0,137.2 L 223.9,138.0 L 221.8,133.5 L 224.1,131.4 L 224.0,128.9 L 221.9,125.7 Z M 242.5,157.6 L 250.9,162.4 L 250.1,164.2 L 243.9,163.1 L 244.7,166.3 L 242.8,168.7 L 242.6,167.8 L 241.9,166.9 L 241.3,167.0 L 242.5,168.2 L 241.5,172.4 L 250.8,183.8 L 252.6,188.4 L 242.3,177.6 L 240.1,179.0 L 238.1,177.3 L 235.5,170.0 L 236.2,160.5 L 241.0,160.3 Z M 201.4,114.8 L 202.0,117.1 L 203.7,115.9 L 202.7,118.6 L 205.1,119.6 L 202.9,124.1 L 205.1,127.6 L 204.0,130.5 L 205.8,130.5 L 204.8,132.3 L 205.6,132.7 L 208.2,128.0 L 209.8,135.3 L 204.3,134.7 L 204.8,136.3 L 203.6,136.0 L 202.7,136.6 L 201.1,136.2 L 202.6,135.0 L 201.5,133.8 L 204.0,133.3 L 196.0,129.8 L 196.3,125.4 L 197.3,122.4 L 197.9,121.8 L 198.7,121.7 L 198.1,121.9 L 196.9,124.8 L 199.1,123.3 L 198.5,117.6 Z M 218.7,109.3 L 222.8,115.1 L 220.1,117.2 L 221.2,118.6 L 217.6,119.1 L 217.9,116.0 L 216.0,114.5 Z M 231.3,117.7 L 232.0,120.7 L 224.7,120.7 L 224.4,112.7 Z M 189.1,113.4 L 193.7,111.9 L 194.0,111.3 L 196.8,114.4 L 198.3,112.4 L 200.1,113.5 L 195.4,116.3 L 195.7,118.2 L 192.8,117.5 L 192.7,114.9 L 190.8,113.2 Z M 209.1,112.3 L 213.0,116.4 L 209.2,120.4 L 207.1,114.5 Z M 183.8,96.4 L 189.8,93.1 L 190.2,97.1 L 186.6,99.8 L 187.1,97.7 Z M 209.1,121.4 L 211.7,123.3 L 208.3,127.6 L 207.6,127.5 L 208.1,127.3 L 208.6,126.1 L 208.5,125.0 L 206.2,123.1 Z M 167.8,98.0 L 170.6,97.9 L 170.7,99.3 L 174.9,99.9 L 174.1,101.5 L 170.9,99.7 L 172.8,102.3 Z M 222.4,106.7 L 223.9,109.2 L 219.9,108.1 L 220.0,107.3 Z M 173.8,107.8 L 172.6,110.4 L 174.3,110.4 L 173.6,112.7 L 172.5,111.0 L 171.3,112.5 Z M 198.8,86.5 L 201.6,86.8 L 199.2,87.5 L 201.9,89.4 L 200.3,88.6 L 199.7,88.9 L 200.7,89.7 L 199.2,89.1 Z M 174.8,103.8 L 178.5,104.5 L 180.4,105.8 L 178.8,105.8 Z M 221.1,126.6 L 220.5,128.4 L 218.4,128.2 L 219.0,127.2 Z M 256.0,194.8 L 256.3,193.2 L 258.2,195.4 Z M 218.5,129.7 L 219.8,129.2 L 220.2,130.3 L 219.7,130.9 Z M 190.1,111.4 L 191.5,110.4 L 191.8,111.3 Z M 176.7,102.0 L 175.8,100.5 L 177.7,102.1 Z M 228.3,109.4 L 229.5,108.8 L 229.5,109.5 Z M 208.6,110.5 L 209.1,111.8 L 207.9,112.3 Z M 193.5,83.6 L 195.5,84.2 L 196.4,84.1 L 195.3,84.7 Z M 185.9,108.9 L 186.6,107.9 L 186.9,109.1 Z M 231.5,139.7 L 233.1,138.8 L 233.3,138.8 Z M 206.8,127.0 L 207.4,125.8 L 207.7,126.3 Z M 207.0,90.1 L 206.3,89.3 L 207.5,89.7 Z M 235.7,144.1 L 236.7,144.8 L 235.4,144.4 Z M 239.3,143.8 L 238.4,144.9 L 238.4,144.2 Z M 212.0,122.6 L 213.1,123.5 L 212.1,123.7 Z M 171.4,98.8 L 173.0,98.6 L 172.8,99.4 Z M 234.7,121.0 L 234.2,121.8 L 234.1,121.0 Z M 265.3,197.2 L 265.4,194.4 L 266.0,193.7 L 266.5,193.5 Z M 240.5,144.6 L 240.7,143.6 L 241.0,144.0 Z M 205.9,119.2 L 205.3,119.4 L 205.6,118.8 Z M 190.2,119.0 L 190.6,119.9 L 189.8,119.3 Z M 197.9,132.9 L 198.7,133.5 L 197.7,133.4 Z M 182.9,103.5 L 182.7,104.2 L 182.3,104.1 Z M 213.6,96.5 L 213.5,96.9 L 213.4,95.2 Z M 241.2,144.1 L 241.2,144.7 L 240.8,144.6 Z M 198.2,116.6 L 197.7,116.9 L 197.7,116.2 Z M 250.3,153.3 L 250.8,152.7 L 251.0,153.0 Z M 187.7,91.6 L 187.1,91.9 L 186.7,91.6 Z M 251.9,168.7 L 252.4,168.9 L 252.5,169.5 Z M 206.0,150.4 L 206.0,151.0 L 205.7,151.0 Z M 201.5,88.2 L 202.3,89.0 L 201.1,88.0 Z M 199.4,133.3 L 199.5,132.8 L 199.9,133.3 Z M 175.0,108.6 L 175.1,108.1 L 175.2,108.4 Z M 251.2,167.4 L 251.3,167.9 L 250.9,167.6 Z M 193.4,119.8 L 193.6,120.4 L 193.1,120.4 Z M 212.6,96.0 L 212.3,96.7 L 212.5,95.7 Z M 188.4,110.7 L 188.5,111.4 L 188.3,111.4 Z M 206.6,124.1 L 206.3,124.5 L 206.3,124.0 Z M 239.8,142.5 L 239.9,143.1 L 239.5,142.7 Z M 200.5,88.2 L 201.4,88.8 L 201.8,89.1 Z M 231.7,137.0 L 231.4,137.5 L 231.2,137.3 Z M 242.6,115.8 L 242.8,115.2 L 243.0,115.6 Z M 178.2,103.3 L 178.0,103.7 L 177.9,103.5 Z M 233.5,119.5 L 233.8,119.9 L 233.4,119.9 Z M 237.7,129.8 L 237.7,130.4 L 237.5,129.9 Z M 193.1,109.5 L 193.4,109.6 L 193.1,109.8 Z M 249.9,164.7 L 250.1,164.3 L 250.1,164.5 Z M 240.0,115.4 L 240.7,116.1 L 240.3,116.3 Z M 228.3,113.0 L 228.1,113.5 L 228.0,113.4 Z M 249.3,151.1 L 249.0,151.0 L 249.7,150.9 Z M 240.7,143.3 L 241.2,143.6 L 241.4,143.9 Z M 189.3,109.8 L 189.0,110.1 L 189.2,109.6 Z M 201.7,86.9 L 202.6,87.2 L 202.6,87.3 Z M 198.8,88.8 L 198.6,88.4 L 198.9,88.7 Z M 176.1,104.7 L 176.0,105.0 L 176.0,104.8 Z M 250.0,164.8 L 249.8,165.1 L 249.6,164.7 Z M 193.6,84.1 L 193.8,84.4 L 193.5,84.2 Z M 189.4,112.1 L 189.1,111.9 L 189.6,111.9 Z M 187.6,111.8 L 187.6,111.6 L 187.9,111.6 Z M 226.7,138.5 L 226.5,138.8 L 226.4,138.8 Z M 251.6,168.6 L 251.6,168.2 L 251.9,168.3 Z M 232.5,119.5 L 232.4,119.7 L 232.3,119.5 Z M 225.1,138.0 L 225.1,138.2 L 225.0,138.0 Z M 241.2,129.6 L 241.0,129.5 L 241.1,129.5 Z M 207.1,128.3 L 206.8,128.4 L 207.2,127.9 Z M 236.9,129.6 L 236.7,129.7 L 236.5,129.4 Z M 207.9,137.1 L 207.9,136.9 L 208.2,137.0 Z M 222.5,138.2 L 222.6,137.9 L 222.8,138.0 Z M 216.4,116.0 L 216.2,116.3 L 216.3,115.7 Z M 267.0,190.4 L 267.1,190.1 L 267.3,190.2 Z M 189.8,123.6 L 189.7,124.0 L 189.6,123.7 Z M 208.0,119.0 L 207.8,119.1 L 207.7,118.9 Z M 177.5,103.2 L 177.6,103.5 L 177.3,103.4 Z M 239.5,144.1 L 239.4,143.9 L 239.4,143.9 Z M 208.1,136.0 L 207.8,136.2 L 207.8,136.0 Z M 237.6,143.3 L 237.2,143.3 L 237.7,143.2 Z M 197.5,133.0 L 197.6,133.3 L 197.4,133.2 Z M 220.6,128.8 L 220.7,128.4 L 220.9,128.4 Z M 210.4,119.7 L 210.4,120.0 L 210.3,120.0 Z M 238.8,99.4 L 238.9,99.7 L 238.7,99.6 Z M 211.2,106.0 L 211.2,105.8 L 211.4,105.9 Z M 235.1,140.9 L 235.1,141.2 L 235.0,141.2 Z M 215.4,104.6 L 215.3,104.5 L 215.6,104.5 Z M 193.6,121.0 L 193.4,120.8 L 193.7,120.8 Z M 209.9,134.4 L 209.9,134.7 L 209.8,134.6 Z M 208.0,89.8 L 208.0,90.0 L 207.9,89.9 Z M 251.0,154.3 L 251.0,154.5 L 250.9,154.4 Z M 222.2,111.6 L 222.2,111.8 L 222.0,111.7 Z M 239.6,143.7 L 239.6,144.0 L 239.5,143.8 Z M 200.4,88.0 L 200.4,88.2 L 200.2,87.9 Z M 240.0,143.3 L 240.4,143.4 L 240.0,143.3 Z M 193.3,109.8 L 193.3,110.1 L 193.2,109.9 Z M 239.7,143.6 L 239.7,144.0 L 239.7,143.7 Z M 205.2,135.8 L 205.3,136.0 L 205.1,135.8 Z M 226.4,138.1 L 226.4,138.2 L 226.2,138.2 Z M 241.4,129.3 L 241.4,129.5 L 241.3,129.3 Z M 192.6,111.0 L 192.5,111.2 L 192.5,111.1 Z M 193.1,108.5 L 193.2,108.7 L 193.0,108.6 Z M 251.1,167.0 L 251.1,166.9 L 251.3,167.2 Z M 221.4,111.6 L 221.4,111.8 L 221.3,111.7 Z M 208.0,150.1 L 208.2,149.9 L 208.3,149.9 Z M 196.2,130.8 L 196.1,130.9 L 196.0,130.8 Z M 194.9,130.8 L 194.8,130.9 L 194.9,130.8 Z M 239.2,142.7 L 239.2,142.9 L 239.1,142.8 Z M 181.7,109.9 L 181.8,110.0 L 181.7,110.2 Z M 204.9,118.3 L 204.8,118.5 L 204.8,118.3 Z M 172.7,107.0 L 172.8,107.2 L 172.7,107.1 Z M 234.0,119.9 L 233.9,120.1 L 233.9,120.0 Z M 199.3,134.0 L 199.3,134.2 L 199.2,134.2 Z M 201.4,135.2 L 201.4,135.3 L 201.3,135.3 Z M 188.8,111.2 L 188.8,111.4 L 188.7,111.4 Z M 203.5,136.2 L 203.5,136.4 L 203.4,136.3 Z M 190.0,108.5 L 190.0,108.7 L 190.0,108.7 Z M 214.3,97.1 L 214.1,97.3 L 214.2,97.0 Z M 236.2,128.7 L 236.2,128.9 L 236.1,128.7 Z M 205.3,136.6 L 205.3,136.5 L 205.5,136.5 Z M 202.3,86.4 L 202.2,86.2 L 202.5,86.4 Z M 236.0,128.3 L 235.9,128.5 L 235.9,128.4 Z M 192.0,104.9 L 192.1,105.1 L 192.0,105.1 Z M 201.9,87.2 L 201.8,87.2 L 201.7,87.1 Z M 218.3,108.8 L 218.3,108.9 L 218.2,108.8 Z M 200.3,89.0 L 200.3,88.8 L 200.4,88.9 Z M 206.3,129.7 L 206.4,129.9 L 206.3,129.8 Z M 236.4,182.0 L 236.5,182.1 L 236.4,182.0 Z M 178.1,102.4 L 178.0,102.5 L 178.0,102.4 Z M 207.4,135.9 L 207.5,135.7 L 207.5,135.8 Z M 235.1,141.5 L 234.9,141.5 L 235.0,141.4 Z M 214.1,105.7 L 214.0,105.7 L 214.0,105.7 Z M 196.8,112.8 L 196.8,112.6 L 196.9,112.8 Z M 214.8,104.8 L 214.7,105.0 L 214.6,104.9 Z M 249.5,157.8 L 249.5,157.9 L 249.5,157.8 Z M 207.9,127.0 L 207.9,127.2 L 207.9,127.1 Z M 196.2,132.4 L 196.2,132.5 L 196.2,132.5 Z M 198.4,131.6 L 198.3,131.8 L 198.3,131.7 Z M 205.9,89.3 L 205.8,89.1 L 205.9,89.3 Z M 192.2,115.3 L 192.2,115.5 L 192.1,115.4 Z M 222.7,136.4 L 222.6,136.5 L 222.6,136.3 Z M 174.0,101.5 L 174.0,101.6 L 173.9,101.6 Z M 238.9,98.4 L 238.8,98.5 L 238.8,98.4 Z M 194.8,106.5 L 194.7,106.7 L 194.7,106.6 Z M 205.8,130.2 L 205.8,130.4 L 205.7,130.4 Z M 195.5,96.5 L 195.4,96.4 L 195.4,96.4 Z M 175.8,112.7 L 175.7,112.7 L 175.7,112.7 Z M 174.4,107.9 L 174.4,108.0 L 174.4,108.0 Z M 214.0,97.4 L 213.9,97.5 L 213.8,97.5 Z M 200.0,132.3 L 200.1,132.4 L 200.0,132.4 Z M 207.2,127.7 L 207.2,127.8 L 207.2,127.8 Z M 199.7,133.7 L 199.7,133.8 L 199.6,133.7 Z M 201.0,87.2 L 201.0,87.2 L 200.9,87.2 Z M 197.9,133.6 L 197.9,133.7 L 197.8,133.7 Z M 250.0,157.0 L 250.1,157.0 L 250.0,157.1 Z M 175.2,107.4 L 175.0,107.3 L 175.2,107.4 Z M 199.6,97.3 L 199.6,97.4 L 199.6,97.3 Z M 190.8,113.6 L 190.7,113.7 L 190.7,113.6 Z M 251.3,154.5 L 251.4,154.6 L 251.3,154.5 Z M 213.8,126.9 L 213.8,127.0 L 213.7,127.0 Z M 201.5,87.1 L 201.5,87.2 L 201.5,87.2 Z M 209.9,112.1 L 210.0,112.2 L 209.9,112.2 Z M 207.4,127.5 L 207.4,127.6 L 207.3,127.5 Z M 205.7,89.1 L 205.7,89.2 L 205.7,89.2 Z M 250.4,156.5 L 250.4,156.6 L 250.3,156.6 Z M 193.6,111.7 L 193.6,111.6 L 193.7,111.7 Z M 239.6,144.2 L 239.6,144.3 L 239.6,144.3 Z M 206.8,89.3 L 206.8,89.3 L 206.9,89.3 Z M 211.3,120.5 L 211.2,120.4 L 211.3,120.5 Z M 208.4,90.0 L 208.5,90.1 L 208.4,90.1 Z M 249.9,157.8 L 249.8,157.8 L 249.9,157.8 Z M 213.7,127.0 L 213.7,127.1 L 213.6,127.1 Z M 221.3,111.2 L 221.3,111.3 L 221.3,111.2 Z M 213.4,118.3 L 213.3,118.3 L 213.4,118.2 Z M 193.1,111.6 L 193.2,111.7 L 193.1,111.7 Z M 195.1,109.4 L 195.1,109.5 L 195.0,109.5 Z M 191.0,129.0 L 191.0,128.9 L 191.1,128.9 Z M 200.3,133.1 L 200.3,133.2 L 200.3,133.2 Z M 197.8,133.8 L 197.8,133.9 L 197.7,133.8 Z M 211.8,119.3 L 211.8,119.4 L 211.8,119.4 Z M 188.2,112.1 L 188.2,112.2 L 188.2,112.1 Z M 209.8,112.4 L 209.8,112.6 L 209.7,112.5 Z M 201.7,136.4 L 201.7,136.6 L 201.7,136.5 Z M 191.4,105.7 L 191.5,105.8 L 191.4,105.8 Z M 203.6,108.3 L 203.6,108.4 L 203.6,108.3 Z M 239.7,144.1 L 239.8,144.2 L 239.7,144.2 Z M 203.7,108.3 L 203.8,108.4 L 203.7,108.4 Z M 198.4,133.5 L 198.5,133.6 L 198.4,133.5 Z M 190.7,127.9 L 190.7,128.0 L 190.7,127.9 Z M 195.8,128.2 L 195.8,128.3 L 195.8,128.4 Z M 202.8,111.7 L 202.8,111.8 L 202.8,111.8 Z M 251.6,167.3 L 251.6,167.4 L 251.5,167.3 Z M 238.8,102.6 L 238.7,102.6 L 238.8,102.6 Z M 209.9,112.7 L 210.0,112.8 L 209.9,112.7 Z M 206.9,110.2 L 207.0,110.3 L 206.9,110.3 Z M 207.6,136.0 L 207.6,136.1 L 207.5,136.1 Z M 203.7,136.5 L 203.6,136.4 L 203.7,136.4 Z M 206.9,129.7 L 206.9,129.8 L 206.9,129.8 Z M 234.2,132.2 L 234.2,132.3 L 234.2,132.3 Z M 193.6,129.1 L 193.5,129.2 L 193.5,129.1 Z M 206.2,135.2 L 206.2,135.2 L 206.3,135.2 Z M 208.9,137.2 L 208.9,137.3 L 208.9,137.3 Z M 188.9,111.8 L 189.0,111.9 L 188.9,111.9 Z M 198.7,133.5 L 198.6,133.6 L 198.6,133.5 Z M 213.9,97.7 L 214.0,97.8 L 213.9,97.8 Z M 219.2,132.0 L 219.2,131.9 L 219.2,132.0 Z M 207.5,136.0 L 207.4,135.9 L 207.5,135.9 Z M 173.8,101.4 L 173.7,101.4 L 173.8,101.4 Z M 198.1,133.6 L 198.0,133.7 L 198.0,133.6 Z M 236.5,129.2 L 236.5,129.2 L 236.5,129.2 Z M 223.0,136.7 L 223.1,136.7 L 223.0,136.7 Z M 223.2,136.7 L 223.2,136.7 L 223.2,136.7 Z"/>
  <path id="3" d="M 84.3,368.4 L 175.2,368.5 L 175.2,363.6 L 190.1,367.2 L 196.7,362.9 L 219.7,355.8 L 222.0,359.1 L 227.7,361.3 L 233.3,358.2 L 233.7,362.2 L 236.0,362.8 L 239.2,361.8 L 240.0,357.8 L 250.7,361.9 L 255.8,361.2 L 258.2,363.8 L 257.7,369.0 L 261.5,372.3 L 264.4,371.0 L 283.6,375.8 L 291.8,374.0 L 302.3,377.8 L 310.9,369.8 L 340.3,369.8 L 341.5,373.5 L 343.2,373.5 L 342.8,376.2 L 350.3,380.0 L 344.4,385.3 L 344.1,388.7 L 346.2,389.5 L 347.0,393.1 L 343.3,400.3 L 344.1,403.7 L 340.7,405.5 L 340.3,408.0 L 343.4,411.4 L 342.2,413.6 L 347.0,423.1 L 346.3,426.1 L 333.7,426.3 L 333.7,475.4 L 494.2,475.9 L 494.0,505.1 L 484.6,506.8 L 467.6,514.1 L 460.9,520.8 L 434.5,525.3 L 427.1,519.1 L 419.8,518.0 L 414.5,522.3 L 398.4,528.6 L 394.5,532.7 L 389.8,530.8 L 378.2,531.3 L 370.3,537.7 L 365.4,536.4 L 363.5,528.6 L 351.7,523.8 L 343.4,525.4 L 332.8,520.7 L 315.9,525.3 L 305.8,523.6 L 300.4,525.5 L 296.4,531.0 L 288.3,536.0 L 261.7,546.8 L 255.5,546.2 L 250.7,542.2 L 245.1,544.0 L 225.2,537.4 L 213.6,530.7 L 212.5,527.3 L 213.8,516.1 L 210.5,508.8 L 211.5,500.6 L 209.0,494.2 L 208.7,487.3 L 202.5,477.2 L 201.9,473.1 L 200.0,469.8 L 179.5,455.3 L 174.6,454.7 L 164.9,459.9 L 161.2,459.6 L 153.5,453.4 L 152.5,450.0 L 146.8,443.3 L 126.0,443.7 L 124.5,437.5 L 121.4,437.2 L 116.9,442.5 L 112.6,441.2 L 106.0,447.5 L 101.2,445.8 L 93.7,437.0 L 88.9,439.1 L 90.2,443.7 L 88.1,441.6 L 86.0,443.6 L 88.4,419.8 L 87.4,390.6 L 89.2,389.6 L 88.8,393.2 L 91.6,398.6 L 92.1,428.8 L 93.8,428.7 L 93.8,428.2 L 94.1,428.0 L 94.1,428.6 L 95.8,427.0 L 96.5,427.6 L 96.8,427.0 L 98.6,429.0 L 98.5,424.3 L 101.4,421.5 L 100.1,416.2 L 101.7,420.9 L 104.9,420.4 L 109.4,425.5 L 108.3,421.7 L 106.0,420.6 L 107.3,420.4 L 103.1,419.8 L 99.3,414.0 L 101.3,408.8 L 102.3,408.4 L 102.6,409.2 L 103.1,409.6 L 103.7,409.6 L 104.6,408.2 L 104.0,403.3 L 98.2,395.6 L 97.7,390.9 L 102.4,395.9 L 102.8,394.3 L 100.4,392.3 L 101.0,391.7 L 101.8,392.2 L 102.4,392.0 L 99.6,390.5 L 101.5,388.8 L 100.8,385.6 L 108.5,381.4 L 112.4,386.7 L 111.8,384.0 L 112.9,385.5 L 113.9,385.5 L 109.5,379.3 L 104.4,376.2 L 104.8,374.5 L 102.5,375.1 L 102.3,377.9 L 100.7,378.2 L 96.4,375.3 L 95.0,378.5 L 96.3,379.8 L 94.8,379.4 L 94.7,379.7 L 97.1,381.1 L 93.9,380.4 L 93.9,381.3 L 93.5,381.4 L 92.1,378.6 L 84.9,375.9 Z M 124.1,445.5 L 123.7,445.8 L 123.1,445.5 Z M 95.0,410.8 L 96.6,413.2 L 95.2,412.5 L 96.1,413.7 L 95.0,414.3 L 95.2,415.2 L 96.6,413.7 L 96.7,415.4 L 99.4,415.6 L 96.8,417.5 L 99.0,417.2 L 99.6,423.0 L 97.1,423.4 L 97.2,419.9 L 93.7,416.3 Z M 151.8,453.8 L 155.7,455.9 L 157.6,460.0 L 158.4,460.3 L 154.6,460.1 L 149.5,455.9 L 149.8,452.4 Z M 151.7,450.2 L 150.1,449.6 L 149.5,447.8 L 150.5,447.8 Z M 150.5,450.1 L 151.7,450.5 L 152.3,450.0 L 152.9,452.3 Z M 89.3,390.6 L 90.7,391.7 L 89.0,392.5 Z M 89.7,379.0 L 90.2,378.5 L 92.7,380.8 Z M 159.0,460.3 L 157.7,458.2 L 158.6,459.3 Z M 148.1,444.8 L 148.6,446.3 L 146.5,443.8 Z M 90.2,385.5 L 91.1,384.9 L 91.5,385.7 Z M 150.4,452.5 L 150.6,451.9 L 151.3,453.0 Z M 90.0,383.7 L 89.7,382.9 L 90.3,383.1 Z M 156.9,458.0 L 157.0,457.4 L 157.5,458.1 Z M 93.2,428.7 L 93.6,427.9 L 93.7,428.4 Z M 103.0,409.5 L 102.8,408.8 L 103.4,409.5 Z M 98.0,385.5 L 97.4,386.7 L 97.6,385.9 Z M 107.6,379.0 L 108.0,378.6 L 108.1,379.2 Z M 97.3,387.3 L 97.3,386.9 L 97.4,387.2 Z M 102.6,394.3 L 102.3,394.9 L 102.2,394.9 Z M 95.8,391.2 L 95.7,391.0 L 96.6,391.0 Z M 157.5,458.9 L 157.5,459.3 L 157.3,458.9 Z M 91.7,379.3 L 91.8,379.6 L 91.6,379.3 Z M 92.5,380.3 L 92.2,380.1 L 92.6,380.1 Z M 151.1,453.1 L 151.4,453.3 L 151.0,453.1 Z M 157.6,458.8 L 157.7,459.0 L 157.6,458.9 Z M 108.2,378.6 L 108.3,379.0 L 108.1,378.6 Z M 103.4,375.8 L 103.6,376.0 L 103.5,376.0 Z M 100.6,393.7 L 100.7,393.8 L 100.5,393.6 Z M 97.7,425.4 L 97.7,425.5 L 97.6,425.5 Z M 94.7,381.2 L 94.7,381.3 L 94.6,381.3 Z M 103.1,375.5 L 103.1,375.7 L 103.0,375.6 Z M 99.1,381.0 L 99.2,381.3 L 99.1,381.0 Z M 108.5,379.0 L 108.3,378.8 L 108.3,378.8 Z M 99.8,416.5 L 99.8,416.7 L 99.7,416.7 Z M 95.8,391.2 L 95.8,391.4 L 95.8,391.2 Z M 107.7,421.5 L 107.6,421.6 L 107.6,421.5 Z M 105.6,421.0 L 105.7,421.1 L 105.6,421.2 Z M 107.2,378.4 L 107.2,378.6 L 107.2,378.4 Z M 112.7,384.5 L 112.7,384.7 L 112.6,384.5 Z"/>
  <path id="4" d="M 333.7,475.4 L 333.7,426.3 L 346.3,426.1 L 347.0,423.1 L 342.2,413.6 L 343.4,411.4 L 340.3,408.0 L 340.7,405.5 L 344.1,403.7 L 343.3,400.3 L 347.0,393.1 L 346.2,389.5 L 344.1,388.7 L 344.4,385.3 L 350.3,380.0 L 342.8,376.2 L 343.2,373.5 L 341.5,373.5 L 340.2,369.8 L 341.5,368.3 L 336.4,358.5 L 333.7,357.1 L 336.3,352.0 L 340.2,350.0 L 340.1,344.1 L 345.0,339.2 L 345.6,334.2 L 348.2,330.9 L 347.6,326.6 L 349.4,328.9 L 357.1,326.3 L 363.2,329.6 L 375.7,340.3 L 375.7,343.3 L 381.8,351.6 L 419.8,351.5 L 419.8,363.8 L 431.9,364.0 L 431.9,376.4 L 483.9,376.5 L 488.3,367.7 L 484.7,359.4 L 484.6,347.1 L 481.2,339.9 L 480.4,333.8 L 477.1,328.8 L 481.1,320.8 L 480.9,308.1 L 472.5,304.7 L 472.9,290.6 L 468.7,286.7 L 456.1,284.2 L 456.0,279.0 L 450.6,271.7 L 452.9,262.2 L 458.1,255.6 L 458.3,248.8 L 462.0,241.6 L 459.7,235.7 L 461.0,232.1 L 468.6,228.1 L 472.8,230.0 L 481.8,227.4 L 485.1,218.2 L 489.1,215.9 L 489.5,210.3 L 494.6,203.5 L 474.8,201.0 L 472.5,193.6 L 467.1,190.9 L 466.8,188.7 L 468.5,188.4 L 467.4,186.9 L 460.6,184.9 L 453.1,177.7 L 450.4,178.5 L 447.5,175.5 L 446.1,172.0 L 447.7,167.8 L 446.9,165.0 L 436.0,158.0 L 431.7,151.7 L 424.2,150.2 L 426.7,143.1 L 418.4,139.7 L 418.2,133.9 L 416.6,132.1 L 420.1,129.2 L 417.9,127.5 L 420.4,125.3 L 417.6,123.9 L 418.5,120.3 L 413.3,120.3 L 414.6,114.1 L 411.6,111.0 L 407.7,113.0 L 404.8,107.0 L 408.5,102.1 L 411.8,101.3 L 412.3,97.8 L 415.6,97.0 L 415.6,93.7 L 417.9,92.9 L 410.1,84.1 L 410.5,74.2 L 406.7,70.2 L 406.5,63.9 L 408.0,61.7 L 403.7,59.3 L 400.8,62.3 L 395.5,57.1 L 398.8,53.4 L 593.9,53.4 L 594.1,102.9 L 590.7,102.9 L 590.8,127.4 L 593.3,127.5 L 593.1,201.4 L 580.7,204.3 L 580.1,301.6 L 678.8,301.8 L 679.0,351.1 L 677.8,357.9 L 674.5,360.7 L 675.2,364.3 L 673.1,365.5 L 673.5,369.6 L 670.4,372.1 L 665.8,370.5 L 659.2,375.1 L 650.8,376.9 L 653.9,384.8 L 652.6,388.0 L 655.8,392.9 L 654.1,397.6 L 643.7,395.1 L 636.5,398.9 L 629.7,396.3 L 621.9,402.4 L 615.1,410.2 L 613.5,422.8 L 607.9,427.5 L 607.1,430.3 L 602.7,430.4 L 600.0,436.3 L 602.1,439.2 L 602.1,445.4 L 619.3,445.6 L 617.3,449.8 L 621.3,451.9 L 621.2,472.6 L 618.0,472.9 L 617.9,478.1 L 615.2,476.7 L 616.2,481.6 L 579.4,481.7 L 569.1,489.9 L 561.7,492.0 L 553.2,490.3 L 530.9,495.1 L 522.8,492.4 L 517.7,495.2 L 513.2,502.1 L 494.0,505.1 L 494.2,475.9 Z"/>
  <path id="5" d="M 580.1,301.6 L 580.7,204.3 L 593.1,201.4 L 593.3,127.5 L 590.8,127.4 L 590.7,102.9 L 594.1,102.9 L 593.9,53.4 L 768.7,53.6 L 768.5,422.0 L 765.7,431.2 L 773.1,439.4 L 772.7,442.3 L 776.2,448.8 L 775.1,452.7 L 779.4,457.8 L 776.2,467.1 L 773.5,469.0 L 777.4,473.0 L 780.0,482.4 L 616.2,481.6 L 615.2,476.7 L 617.9,478.1 L 618.0,472.9 L 621.2,472.6 L 621.3,451.9 L 617.3,449.8 L 619.3,445.6 L 602.1,445.4 L 602.1,439.2 L 600.0,436.3 L 602.7,430.4 L 607.1,430.3 L 607.9,427.5 L 613.5,422.8 L 615.1,410.2 L 621.9,402.4 L 629.7,396.3 L 636.5,398.9 L 643.7,395.1 L 654.1,397.6 L 655.8,392.9 L 652.6,388.0 L 653.9,384.8 L 650.8,376.9 L 659.2,375.1 L 665.8,370.5 L 670.4,372.1 L 673.5,369.6 L 673.1,365.5 L 675.2,364.3 L 674.5,360.7 L 677.8,357.9 L 679.0,351.1 L 678.8,301.8 Z"/>
  <path id="6" d="M 244.9,301.5 L 245.5,314.7 L 238.7,312.6 L 237.1,310.6 L 238.6,311.2 L 238.7,304.3 L 233.4,304.3 L 236.2,298.7 L 234.5,293.6 Z M 182.7,308.1 L 180.2,307.2 L 181.5,303.8 L 175.0,306.4 L 181.1,313.1 L 180.8,322.9 L 183.4,326.9 L 171.1,326.9 L 171.2,339.4 L 175.4,339.5 L 175.2,368.5 L 84.3,368.4 L 80.4,352.4 L 83.0,351.4 L 84.9,353.0 L 84.0,355.9 L 85.6,359.0 L 87.0,358.7 L 86.0,359.6 L 86.2,361.1 L 87.0,361.8 L 89.4,359.4 L 91.4,362.5 L 91.6,361.5 L 92.3,361.9 L 92.2,361.7 L 93.1,361.7 L 93.2,361.4 L 89.7,358.4 L 90.1,358.5 L 90.6,357.8 L 90.9,358.1 L 90.7,357.3 L 91.7,357.5 L 92.2,357.5 L 90.8,356.9 L 88.9,358.5 L 87.4,358.5 L 89.4,354.1 L 93.6,353.0 L 95.5,350.0 L 110.2,345.4 L 113.3,342.6 L 116.0,344.6 L 114.7,342.0 L 112.4,342.6 L 109.7,344.5 L 105.7,343.1 L 98.9,343.5 L 101.9,341.7 L 93.7,341.6 L 91.9,340.3 L 93.6,338.4 L 91.3,334.7 L 82.0,333.0 L 79.2,336.0 L 81.2,346.3 L 83.5,347.0 L 80.2,346.6 L 79.3,347.3 L 78.7,348.0 L 79.3,348.0 L 79.4,347.5 L 80.0,347.6 L 80.3,347.4 L 81.6,347.3 L 80.2,347.5 L 78.8,348.9 L 76.4,349.5 L 76.9,326.2 L 74.1,309.5 L 70.6,297.1 L 66.8,295.6 L 64.8,289.1 L 62.8,288.3 L 60.6,276.7 L 61.0,276.3 L 60.6,273.1 L 62.1,273.2 L 60.6,272.9 L 58.2,254.7 L 52.7,233.6 L 47.3,229.4 L 48.0,229.1 L 48.2,228.8 L 46.3,222.1 L 45.2,221.4 L 44.0,221.6 L 43.1,220.2 L 41.4,219.9 L 39.6,215.5 L 37.6,214.0 L 36.3,213.5 L 35.5,214.6 L 35.3,214.3 L 34.8,214.6 L 34.5,214.5 L 35.0,214.2 L 34.8,213.4 L 32.8,211.5 L 32.5,211.6 L 32.8,210.2 L 31.5,209.7 L 29.6,201.6 L 28.3,200.9 L 26.3,186.1 L 27.3,182.1 L 22.9,172.8 L 26.4,167.9 L 27.0,164.9 L 25.5,162.0 L 30.3,150.2 L 29.4,147.0 L 26.4,147.2 L 23.0,141.6 L 30.0,140.4 L 33.8,143.8 L 39.2,143.7 L 55.6,155.1 L 67.2,159.9 L 70.9,158.7 L 83.5,165.0 L 83.7,167.0 L 83.2,166.0 L 82.2,166.0 L 82.1,166.1 L 83.2,166.2 L 83.2,167.2 L 83.5,167.7 L 88.9,170.9 L 95.7,172.7 L 112.4,174.1 L 122.0,172.3 L 130.1,176.4 L 137.3,174.6 L 141.6,177.4 L 148.1,176.0 L 151.3,176.0 L 145.8,177.0 L 150.7,179.6 L 159.9,180.1 L 167.5,179.4 L 176.0,171.5 L 176.8,171.1 L 178.5,170.9 L 180.8,169.9 L 172.7,175.3 L 179.8,174.6 L 184.3,179.0 L 185.7,181.3 L 186.7,183.9 L 185.5,184.4 L 186.3,188.0 L 190.2,192.9 L 190.0,186.4 L 186.7,184.7 L 198.8,182.6 L 197.8,187.0 L 203.0,189.5 L 204.6,193.8 L 203.9,195.5 L 202.2,196.4 L 202.4,196.6 L 201.6,197.2 L 201.4,197.6 L 201.5,197.8 L 206.2,195.9 L 207.5,190.1 L 201.2,185.3 L 201.9,181.1 L 206.4,176.7 L 214.6,175.6 L 215.0,179.5 L 210.0,183.9 L 213.4,188.0 L 212.1,189.3 L 214.9,192.5 L 217.2,192.5 L 218.0,198.0 L 221.8,200.8 L 220.3,202.5 L 222.1,202.1 L 221.5,207.4 L 219.3,208.1 L 219.6,208.6 L 222.3,208.1 L 223.8,206.0 L 224.9,211.2 L 228.4,212.3 L 227.2,213.7 L 227.0,212.1 L 226.9,212.1 L 226.0,212.1 L 225.9,215.3 L 220.4,215.1 L 221.3,219.2 L 215.1,224.4 L 214.4,231.8 L 211.7,235.9 L 212.9,240.1 L 211.6,240.9 L 206.9,240.1 L 211.2,226.8 L 209.6,217.2 L 208.8,216.2 L 208.4,224.3 L 206.6,227.4 L 204.9,227.5 L 205.7,224.1 L 204.3,220.6 L 203.2,223.4 L 205.1,233.5 L 202.8,232.6 L 202.1,234.5 L 200.5,239.8 L 201.5,240.4 L 198.3,244.7 L 200.1,244.1 L 200.1,246.8 L 198.8,246.7 L 198.1,246.1 L 197.0,246.0 L 196.4,248.8 L 192.5,251.2 L 189.2,258.3 L 186.3,260.6 L 185.1,267.3 L 179.7,272.8 L 175.3,288.4 L 178.0,291.3 L 178.4,291.2 L 179.0,290.6 L 178.9,291.3 L 179.9,290.6 L 180.6,287.9 L 187.8,288.8 L 199.2,283.5 L 206.0,277.1 L 206.0,275.4 L 205.0,275.7 L 192.8,282.5 L 187.8,287.7 L 185.7,287.0 L 187.0,285.3 L 180.0,285.7 L 179.1,283.2 L 183.5,274.3 L 185.1,274.6 L 185.9,274.2 L 184.1,273.6 L 194.1,255.5 L 198.2,253.6 L 198.7,250.2 L 203.2,249.7 L 205.0,246.4 L 207.4,245.5 L 206.7,248.0 L 214.6,243.7 L 215.9,233.9 L 228.7,216.7 L 231.5,216.8 L 231.4,223.1 L 233.0,221.7 L 231.2,209.7 L 227.4,205.9 L 229.0,204.7 L 230.5,207.5 L 236.6,208.8 L 238.5,220.1 L 240.9,222.8 L 239.6,225.5 L 238.9,225.1 L 238.0,225.6 L 237.9,225.9 L 240.8,227.4 L 241.9,231.9 L 234.1,232.5 L 234.9,232.3 L 233.4,229.1 L 234.3,234.4 L 230.6,240.4 L 228.2,237.4 L 226.8,237.9 L 224.4,232.5 L 223.4,235.2 L 225.6,239.0 L 228.1,238.9 L 227.7,246.1 L 230.3,248.3 L 228.7,257.8 L 224.3,254.5 L 221.2,246.2 L 218.9,251.5 L 221.2,252.5 L 221.8,257.5 L 222.9,257.7 L 222.1,256.9 L 221.8,254.4 L 222.4,256.3 L 222.8,252.8 L 223.0,255.6 L 227.3,257.7 L 226.6,259.4 L 224.0,259.8 L 220.0,263.8 L 228.7,260.9 L 233.8,254.7 L 234.1,257.6 L 236.0,258.3 L 235.0,259.5 L 235.3,261.3 L 234.6,263.6 L 234.5,264.9 L 239.5,265.8 L 236.0,272.0 L 235.9,277.9 L 234.1,278.3 L 235.1,286.2 L 232.2,292.3 L 231.2,289.5 L 230.2,290.8 L 234.5,298.3 L 230.7,302.6 L 229.5,301.3 L 230.4,299.0 L 228.3,296.2 L 229.5,300.1 L 220.2,298.6 L 221.7,296.5 L 220.8,294.9 L 222.3,292.9 L 223.7,292.9 L 224.6,291.9 L 222.6,290.0 L 227.1,285.9 L 226.5,283.4 L 226.8,281.4 L 226.7,280.4 L 226.5,280.2 L 225.6,284.6 L 226.7,284.2 L 220.9,287.5 L 220.4,287.6 L 219.9,286.2 L 219.7,286.1 L 220.4,288.3 L 216.2,289.6 L 217.1,291.9 L 212.9,300.7 L 215.0,299.8 L 214.1,302.7 L 216.2,301.1 L 216.2,303.4 L 218.0,303.2 L 217.8,307.4 L 215.4,309.5 L 215.2,308.9 L 215.2,307.5 L 215.1,307.2 L 214.9,306.8 L 215.2,313.4 L 213.0,315.2 L 213.0,312.0 L 211.0,312.2 L 209.3,308.2 L 210.3,307.5 L 207.0,304.1 L 211.6,296.1 L 211.1,290.7 L 211.3,290.3 L 212.2,290.7 L 212.9,290.6 L 213.6,290.1 L 210.5,289.5 L 211.7,286.5 L 209.4,288.0 L 208.2,280.9 L 205.9,294.2 L 203.5,293.5 L 203.1,296.0 L 197.7,298.9 L 196.9,309.7 L 183.9,308.9 L 188.0,307.4 L 186.1,305.4 L 189.1,301.6 Z M 224.1,289.1 L 224.0,288.9 L 224.0,289.1 Z M 236.3,238.6 L 234.4,240.2 L 238.2,238.0 L 239.3,244.5 L 237.4,246.0 L 240.2,248.6 L 240.0,250.4 L 235.4,249.7 L 239.1,250.8 L 239.4,253.7 L 237.3,253.9 L 241.2,255.7 L 238.7,256.9 L 234.4,252.8 L 232.0,254.0 L 231.5,247.2 L 232.6,246.6 L 230.1,244.3 L 233.9,243.0 L 232.7,240.0 L 234.0,236.1 Z M 205.5,296.2 L 203.2,299.1 L 203.1,303.8 L 206.0,309.6 L 204.8,313.6 L 202.4,315.8 L 201.2,309.6 L 198.0,305.6 L 198.6,299.6 Z M 220.1,181.5 L 222.8,191.7 L 221.0,195.0 L 216.8,191.7 L 215.1,186.0 L 217.3,183.7 L 218.2,190.5 L 219.9,193.9 L 219.4,188.8 L 220.7,188.5 L 216.9,183.0 Z M 223.2,299.3 L 225.7,301.6 L 226.6,300.8 L 230.4,306.4 L 228.2,307.6 Z M 198.4,307.4 L 200.5,311.4 L 201.2,315.0 L 198.0,311.1 Z M 238.6,261.4 L 239.7,261.0 L 241.1,261.7 L 240.2,263.4 Z M 197.0,177.7 L 199.5,178.2 L 195.9,179.3 Z M 207.7,300.3 L 206.7,302.3 L 206.1,302.2 L 206.1,300.8 Z M 208.2,291.9 L 206.8,294.0 L 207.3,291.7 Z M 105.5,344.3 L 107.9,344.5 L 107.9,344.7 Z M 222.2,292.5 L 223.2,291.4 L 223.7,292.2 Z M 86.8,359.3 L 87.8,359.9 L 86.9,359.9 L 86.8,360.3 Z M 93.7,351.4 L 93.6,352.4 L 92.9,351.7 Z M 197.9,311.7 L 197.5,312.8 L 197.2,312.6 Z M 207.9,290.3 L 207.1,291.1 L 207.9,289.5 Z M 46.9,242.1 L 47.1,242.8 L 46.5,243.0 Z M 86.7,360.5 L 86.3,360.8 L 86.6,359.6 Z M 87.9,359.6 L 88.0,360.4 L 87.4,360.7 L 87.8,360.2 Z M 84.8,356.9 L 85.1,356.3 L 85.2,357.0 Z M 35.8,141.3 L 35.8,142.3 L 35.7,141.3 Z M 21.0,173.4 L 21.3,174.1 L 20.8,173.3 Z M 30.9,209.8 L 31.2,209.4 L 31.3,209.8 Z M 22.7,140.6 L 22.7,140.1 L 22.9,140.3 Z M 87.3,360.4 L 87.1,360.2 L 87.6,360.1 Z M 179.7,290.1 L 179.3,290.6 L 179.4,289.9 Z M 225.3,300.6 L 225.5,301.0 L 225.4,301.2 Z M 85.3,358.1 L 85.7,358.0 L 86.0,358.3 Z M 221.3,218.6 L 221.5,217.6 L 221.5,218.2 Z M 60.5,272.8 L 60.4,273.2 L 60.2,272.8 Z M 44.7,224.9 L 45.0,225.3 L 44.5,225.0 Z M 216.6,183.2 L 216.3,184.2 L 216.3,183.6 Z M 87.0,342.1 L 86.9,342.1 L 86.8,341.7 Z M 88.7,359.3 L 88.8,359.2 L 89.3,359.2 Z M 26.7,196.8 L 26.4,196.5 L 26.8,196.7 Z M 178.7,290.9 L 178.4,290.7 L 178.7,290.7 Z M 203.9,303.5 L 203.9,303.8 L 203.8,303.7 Z M 20.6,171.2 L 20.6,171.4 L 20.4,171.2 Z M 23.4,197.2 L 23.3,197.7 L 23.2,197.6 Z M 104.9,344.0 L 105.0,344.2 L 104.8,344.1 Z M 30.7,209.1 L 31.0,209.0 L 31.1,209.1 Z M 83.3,167.1 L 83.4,166.9 L 83.6,167.2 Z M 179.8,290.1 L 179.8,290.4 L 179.7,290.4 Z M 32.8,212.5 L 32.8,212.2 L 33.0,212.4 Z M 80.0,347.1 L 80.0,347.4 L 79.9,347.3 Z M 53.1,236.8 L 53.1,237.1 L 52.9,236.9 Z M 20.1,171.0 L 20.2,171.2 L 20.0,171.0 Z M 79.3,347.5 L 79.2,347.9 L 79.1,347.9 Z M 90.2,358.2 L 90.1,358.0 L 90.3,358.0 Z M 28.9,202.3 L 28.7,202.3 L 28.8,202.2 Z M 23.9,195.5 L 23.7,195.5 L 23.7,195.3 Z M 29.1,204.9 L 29.1,205.2 L 29.0,204.9 Z M 22.1,140.2 L 22.3,140.4 L 22.1,140.4 Z M 89.6,359.5 L 89.6,359.3 L 89.8,359.4 Z M 27.6,205.9 L 27.5,206.0 L 27.4,205.9 Z M 92.3,361.6 L 92.3,361.4 L 92.4,361.5 Z M 87.2,360.5 L 87.1,360.8 L 87.0,360.7 Z M 90.4,357.6 L 90.4,357.9 L 90.3,357.7 Z M 92.5,361.4 L 92.3,361.3 L 92.6,361.3 Z M 22.3,139.9 L 22.6,140.0 L 22.3,139.9 Z M 25.6,160.8 L 25.7,160.6 L 25.7,160.8 Z M 220.9,293.1 L 221.0,293.2 L 220.9,293.3 Z M 92.7,361.6 L 92.6,361.4 L 92.9,361.6 Z M 40.2,220.3 L 40.1,220.6 L 40.0,220.4 Z M 235.7,239.3 L 235.8,239.1 L 235.8,239.3 Z M 22.7,171.8 L 22.6,171.9 L 22.5,171.8 Z M 38.7,216.9 L 38.7,217.0 L 38.6,216.9 Z M 90.5,357.4 L 90.6,357.7 L 90.4,357.5 Z M 26.8,196.8 L 26.9,197.0 L 26.8,197.0 Z M 46.7,242.5 L 46.4,242.7 L 46.4,242.7 Z M 44.9,228.5 L 44.9,228.7 L 44.8,228.6 Z M 59.4,280.3 L 59.5,280.5 L 59.4,280.4 Z M 45.7,221.9 L 45.8,222.1 L 45.7,222.1 Z M 218.2,307.0 L 218.2,307.2 L 218.1,307.1 Z M 32.2,212.7 L 32.2,212.9 L 32.2,212.7 Z M 22.0,140.3 L 22.0,140.4 L 21.9,140.4 Z M 41.1,220.1 L 41.0,220.3 L 40.9,220.1 Z M 30.7,209.2 L 30.6,209.3 L 30.6,209.2 Z M 60.3,272.6 L 60.2,272.5 L 60.3,272.6 Z M 26.1,163.9 L 26.2,164.0 L 26.1,164.0 Z M 39.1,217.7 L 39.2,217.8 L 39.1,217.8 Z M 87.9,359.4 L 88.0,359.5 L 87.9,359.4 Z M 27.6,200.7 L 27.6,200.9 L 27.5,200.8 Z M 66.3,296.7 L 66.3,296.8 L 66.2,296.7 Z M 22.3,140.1 L 22.3,140.2 L 22.2,140.1 Z M 83.2,166.1 L 82.9,166.0 L 83.2,166.0 Z M 44.3,221.7 L 44.4,221.9 L 44.3,221.9 Z M 28.3,202.0 L 28.3,202.2 L 28.2,202.1 Z M 58.8,280.9 L 58.7,281.0 L 58.6,280.9 Z M 91.9,361.2 L 91.9,361.4 L 91.8,361.3 Z M 34.8,213.7 L 34.7,213.9 L 34.7,213.8 Z M 25.2,160.2 L 25.1,160.1 L 25.2,160.2 Z M 47.8,232.0 L 47.8,232.1 L 47.7,232.1 Z M 28.8,203.1 L 28.9,203.2 L 28.8,203.3 Z M 43.3,220.7 L 43.4,220.8 L 43.3,220.8 Z M 25.5,162.8 L 25.5,163.0 L 25.4,162.9 Z M 32.7,211.7 L 32.7,211.8 L 32.6,211.8 Z M 41.7,220.8 L 41.7,221.0 L 41.6,220.9 Z M 91.3,357.4 L 91.4,357.3 L 91.4,357.4 Z M 32.0,212.8 L 32.1,212.9 L 32.0,212.8 Z M 25.5,160.4 L 25.5,160.5 L 25.4,160.5 Z M 38.9,217.2 L 38.9,217.4 L 38.8,217.2 Z M 39.5,217.5 L 39.4,217.4 L 39.4,217.4 Z M 32.3,213.0 L 32.3,213.1 L 32.2,213.1 Z M 44.3,222.5 L 44.4,222.6 L 44.3,222.6 Z M 25.4,162.0 L 25.3,162.1 L 25.3,162.0 Z M 29.1,150.7 L 29.2,150.7 L 29.0,150.7 Z M 46.7,241.9 L 46.8,241.9 L 46.6,241.9 Z M 60.7,274.7 L 60.8,274.8 L 60.7,274.8 Z M 220.0,208.1 L 220.1,208.2 L 220.1,208.2 Z M 46.8,241.8 L 46.7,241.8 L 46.8,241.8 Z M 75.0,317.6 L 75.0,317.7 L 75.0,317.7 Z M 215.1,191.9 L 215.0,192.0 L 215.1,191.9 Z M 39.1,216.3 L 39.2,216.4 L 39.1,216.3 Z M 220.2,208.1 L 220.3,208.2 L 220.2,208.2 Z M 46.3,242.8 L 46.3,242.9 L 46.3,242.9 Z M 35.2,214.5 L 35.2,214.4 L 35.2,214.4 Z M 52.5,239.4 L 52.6,239.5 L 52.5,239.5 Z M 90.6,357.5 L 90.6,357.4 L 90.7,357.5 Z M 23.2,143.9 L 23.3,144.0 L 23.2,143.9 Z M 42.0,220.4 L 42.0,220.5 L 41.9,220.4 Z M 47.0,241.8 L 46.9,241.8 L 46.9,241.8 Z M 47.1,241.8 L 47.0,241.7 L 47.2,241.8 Z M 47.9,229.0 L 47.8,229.0 L 48.0,229.0 Z M 39.0,216.3 L 39.0,216.4 L 39.0,216.4 Z M 23.2,144.1 L 23.3,144.1 L 23.3,144.2 Z M 222.6,193.2 L 222.7,193.3 L 222.6,193.3 Z M 44.3,222.0 L 44.3,221.9 L 44.3,222.0 Z M 34.5,214.3 L 34.4,214.4 L 34.4,214.4 Z M 50.1,232.4 L 50.1,232.4 L 50.1,232.4 Z M 38.8,216.9 L 38.9,217.0 L 38.8,217.0 Z M 34.6,214.6 L 34.5,214.5 L 34.5,214.5 Z M 224.0,260.2 L 224.0,260.2 L 224.0,260.1 Z M 222.8,193.3 L 222.7,193.3 L 222.7,193.3 Z"/>
  <path id="7" d="M 255.1,216.5 L 256.6,218.4 L 254.8,220.3 L 255.4,227.3 L 261.7,229.3 L 259.9,233.8 L 261.2,239.8 L 263.8,241.8 L 260.9,246.5 L 256.4,245.6 L 255.1,247.0 L 247.6,242.4 L 251.4,234.9 L 249.3,224.3 Z M 260.3,251.8 L 258.6,250.3 L 255.6,252.4 L 257.0,260.7 L 255.2,261.3 L 255.3,264.1 L 259.3,269.2 L 257.4,269.2 L 256.2,272.5 L 255.4,281.2 L 253.2,275.9 L 250.5,274.7 L 252.6,270.3 L 248.9,265.2 L 249.0,260.4 L 246.8,256.7 L 250.1,253.8 L 253.3,257.5 L 252.9,256.6 L 252.9,255.0 L 254.1,254.7 L 254.2,257.4 L 255.0,253.2 L 245.2,244.5 L 247.9,243.1 L 253.8,246.6 L 254.8,249.6 L 256.4,245.8 L 259.8,246.7 Z M 243.5,267.5 L 243.0,269.5 L 245.6,272.4 L 245.2,280.8 L 251.4,283.5 L 242.8,290.0 L 241.8,287.4 L 245.7,283.4 L 245.0,281.1 L 242.6,281.7 L 244.4,283.3 L 240.7,284.8 L 239.9,291.7 L 237.3,291.4 L 236.5,282.4 L 238.0,274.1 L 241.0,269.9 L 241.4,266.1 Z"/>
  <path id="8" d="M 233.3,348.5 L 234.1,343.8 L 236.6,343.7 L 235.9,339.5 L 246.7,339.7 L 246.7,329.3 L 249.0,331.4 L 259.0,331.4 L 259.2,321.0 L 262.2,321.1 L 262.2,318.6 L 265.3,316.9 L 265.3,311.4 L 268.0,311.1 L 265.3,302.2 L 262.9,304.3 L 262.2,302.2 L 259.0,302.3 L 259.1,304.3 L 255.9,305.0 L 255.0,302.2 L 258.2,301.2 L 257.8,298.1 L 261.1,295.6 L 259.0,294.0 L 258.9,288.3 L 261.3,287.9 L 261.4,285.3 L 263.4,285.2 L 263.0,288.5 L 264.4,288.5 L 264.3,286.2 L 268.0,287.2 L 268.0,283.2 L 273.1,283.7 L 270.7,277.1 L 272.6,275.5 L 272.6,272.5 L 275.9,273.0 L 274.2,272.5 L 276.0,270.1 L 273.2,266.2 L 279.9,265.3 L 281.0,261.2 L 277.8,260.7 L 279.2,248.9 L 277.8,247.4 L 279.0,245.1 L 286.8,248.0 L 287.3,249.5 L 285.5,250.2 L 288.3,251.5 L 287.3,253.5 L 290.4,253.2 L 299.9,258.0 L 299.3,259.7 L 304.5,260.8 L 304.9,263.7 L 308.6,264.1 L 309.5,268.7 L 314.8,270.4 L 317.1,275.3 L 333.4,282.5 L 340.9,281.6 L 341.5,278.9 L 347.0,277.1 L 348.6,273.2 L 354.3,270.6 L 356.1,265.7 L 360.9,262.5 L 362.2,258.3 L 367.2,258.2 L 367.8,254.7 L 373.5,253.5 L 371.5,246.8 L 371.9,242.5 L 378.1,237.2 L 372.7,227.1 L 377.6,220.5 L 369.6,218.3 L 367.0,207.8 L 370.2,198.9 L 373.1,196.2 L 369.5,190.4 L 383.0,185.5 L 389.6,180.1 L 387.9,177.2 L 388.8,174.5 L 393.5,172.8 L 392.3,169.0 L 387.9,166.1 L 388.3,163.6 L 383.3,156.2 L 384.1,153.5 L 377.6,150.6 L 377.7,147.8 L 380.5,146.5 L 378.0,140.1 L 380.8,134.4 L 378.3,130.6 L 378.9,128.1 L 381.0,125.6 L 389.2,125.0 L 389.3,120.6 L 397.7,120.6 L 398.2,117.9 L 400.1,117.6 L 405.0,123.9 L 418.1,119.6 L 417.6,123.9 L 420.4,125.3 L 417.9,127.5 L 420.1,129.2 L 416.6,132.1 L 418.2,133.9 L 418.4,139.7 L 426.7,143.1 L 424.2,150.2 L 431.7,151.7 L 436.0,158.0 L 446.9,165.0 L 447.7,167.8 L 446.1,172.0 L 447.5,175.5 L 450.4,178.5 L 453.1,177.7 L 460.6,184.9 L 467.4,186.9 L 468.5,188.4 L 466.8,188.7 L 467.1,190.9 L 472.5,193.6 L 474.8,201.0 L 493.8,201.9 L 494.7,203.8 L 489.5,210.3 L 489.1,215.9 L 485.1,218.2 L 481.8,227.4 L 472.8,230.0 L 468.6,228.1 L 461.0,232.1 L 459.7,235.7 L 462.0,241.6 L 458.3,248.8 L 458.1,255.6 L 452.9,262.2 L 450.6,271.7 L 456.0,279.0 L 456.1,284.2 L 468.7,286.7 L 472.9,290.6 L 472.5,304.7 L 480.9,308.1 L 481.1,320.8 L 477.2,329.1 L 480.4,333.8 L 481.2,339.9 L 484.6,347.1 L 484.7,359.4 L 488.5,365.9 L 483.9,376.5 L 431.9,376.4 L 431.9,364.0 L 419.8,363.8 L 419.8,351.5 L 381.8,351.6 L 375.7,343.3 L 375.7,340.3 L 357.1,326.3 L 349.6,328.9 L 347.4,326.8 L 348.2,330.9 L 345.6,334.2 L 345.0,339.2 L 340.1,344.1 L 340.2,350.0 L 334.7,354.3 L 333.8,357.1 L 336.4,358.5 L 341.5,368.3 L 340.2,369.8 L 310.9,369.8 L 302.8,377.7 L 291.8,374.0 L 283.6,375.8 L 264.3,371.0 L 261.6,372.3 L 257.7,369.0 L 258.2,363.8 L 255.9,361.2 L 250.7,361.9 L 240.0,357.9 L 239.4,352.1 Z"/>
  <path id="9" d="M 255.4,281.1 L 255.4,281.1 L 255.4,281.2 Z M 256.1,289.2 L 256.2,272.5 L 257.4,269.2 L 259.3,269.2 L 255.3,264.1 L 255.2,261.3 L 257.0,260.7 L 255.6,252.4 L 259.3,250.3 L 260.6,257.6 L 263.7,259.9 L 262.1,264.7 L 266.6,267.6 L 268.0,266.9 L 267.0,265.0 L 269.5,256.8 L 266.0,250.9 L 267.2,247.2 L 273.7,244.7 L 273.7,249.5 L 276.5,246.8 L 276.8,249.4 L 279.1,249.4 L 277.9,251.1 L 278.9,251.8 L 277.8,260.7 L 281.0,261.2 L 279.9,265.3 L 273.2,266.2 L 276.0,270.1 L 274.2,272.5 L 275.9,273.0 L 272.6,272.5 L 272.6,275.5 L 270.7,277.1 L 273.1,283.7 L 268.0,283.2 L 268.0,287.2 L 264.3,286.2 L 264.4,288.5 L 263.0,288.5 L 263.4,285.2 L 261.4,285.3 L 261.3,287.9 L 258.9,288.3 L 259.0,294.0 L 261.1,295.6 L 257.8,298.1 L 258.2,301.2 L 255.0,302.2 L 254.7,304.5 L 253.0,302.2 L 245.7,305.7 L 246.3,303.1 L 245.4,301.7 L 247.3,302.9 L 247.3,299.2 L 251.2,302.8 L 247.4,298.3 L 252.4,301.7 L 252.6,301.4 L 244.5,295.3 Z M 245.6,303.4 L 245.6,303.5 L 245.6,303.4 Z M 245.5,302.8 L 245.6,303.4 L 245.6,303.4 Z M 262.9,254.9 L 265.6,254.0 L 268.0,256.5 L 265.7,264.1 L 263.9,262.5 L 265.1,259.1 Z"/>
  <path id="10" d="M 171.2,339.4 L 171.1,326.9 L 183.4,326.9 L 180.8,322.9 L 181.1,313.1 L 178.2,308.1 L 175.0,307.1 L 180.4,303.8 L 181.5,303.8 L 180.4,307.7 L 182.5,308.2 L 181.7,309.5 L 196.7,310.7 L 194.2,314.8 L 186.1,316.9 L 182.4,319.6 L 189.0,317.8 L 188.6,321.3 L 184.8,321.9 L 182.4,324.9 L 188.3,323.3 L 190.9,319.9 L 190.6,318.3 L 192.5,319.4 L 196.4,312.9 L 198.5,314.2 L 193.5,322.6 L 195.0,323.6 L 191.6,323.7 L 191.8,326.4 L 189.0,329.5 L 191.6,332.0 L 191.3,333.3 L 191.5,334.0 L 191.6,334.0 L 192.0,331.6 L 190.1,328.6 L 195.9,325.2 L 197.9,318.0 L 196.7,327.6 L 198.9,329.9 L 199.9,336.4 L 199.8,330.9 L 201.1,331.7 L 200.0,328.2 L 201.8,323.2 L 199.7,319.0 L 206.0,315.5 L 205.8,319.5 L 204.9,318.8 L 204.6,319.2 L 206.2,320.0 L 205.4,320.2 L 204.1,321.7 L 205.9,320.3 L 207.8,325.8 L 208.6,313.5 L 211.4,320.8 L 217.0,324.4 L 217.2,326.9 L 217.2,325.7 L 217.5,325.1 L 220.9,325.7 L 228.2,314.9 L 231.8,312.5 L 231.0,310.4 L 232.9,306.5 L 233.1,304.1 L 233.2,304.0 L 238.7,304.3 L 238.6,311.2 L 238.3,310.5 L 237.1,311.1 L 245.3,314.7 L 245.5,305.7 L 253.0,302.2 L 254.4,304.6 L 256.0,303.3 L 255.1,304.3 L 255.9,305.0 L 259.1,304.3 L 259.0,302.3 L 262.2,302.2 L 262.9,304.3 L 265.3,302.2 L 267.9,309.5 L 265.3,311.4 L 264.8,317.8 L 262.2,318.6 L 262.2,321.1 L 259.2,321.0 L 259.0,331.4 L 249.0,331.4 L 246.7,329.3 L 246.7,339.7 L 235.9,339.5 L 236.6,343.7 L 234.1,343.8 L 233.3,348.5 L 239.4,352.1 L 240.3,356.3 L 239.2,361.8 L 236.3,362.8 L 233.7,362.2 L 233.3,358.2 L 227.7,361.3 L 222.0,359.1 L 219.7,355.8 L 196.7,362.9 L 190.1,367.2 L 175.2,363.6 L 175.4,339.5 Z M 217.2,314.3 L 222.4,314.2 L 222.1,318.6 L 218.9,318.0 L 219.9,321.2 L 215.7,317.0 L 217.9,316.6 Z M 217.1,309.6 L 221.2,305.9 L 225.4,309.5 L 221.6,311.6 Z M 225.8,316.5 L 226.7,316.5 L 225.7,318.0 Z M 196.6,312.5 L 196.3,312.7 L 196.6,312.3 Z M 220.2,312.0 L 220.1,312.4 L 220.1,312.2 Z M 199.3,332.2 L 199.3,332.5 L 199.3,332.2 Z M 190.6,319.8 L 190.6,319.9 L 190.6,319.8 Z"/>
</svg>
